<svg width="637" height="76" viewBox="0 0 637 76" fill="none" xmlns="http://www.w3.org/2000/svg">
<rect x="15.5" width="48" height="48" rx="24" fill="#0DA2E7"/>
<path d="M36.1667 15.6667V19.0001" stroke="white" stroke-width="1.66667" stroke-linecap="round" stroke-linejoin="round"/>
<path d="M42.8333 15.6667V19.0001" stroke="white" stroke-width="1.66667" stroke-linecap="round" stroke-linejoin="round"/>
<path d="M45.3333 17.3333H33.6667C32.7462 17.3333 32 18.0794 32 18.9999V30.6666C32 31.5871 32.7462 32.3333 33.6667 32.3333H45.3333C46.2538 32.3333 47 31.5871 47 30.6666V18.9999C47 18.0794 46.2538 17.3333 45.3333 17.3333Z" stroke="white" stroke-width="1.66667" stroke-linecap="round" stroke-linejoin="round"/>
<path d="M32 22.3333H47" stroke="white" stroke-width="1.66667" stroke-linecap="round" stroke-linejoin="round"/>
<path d="M4.746 72.168C4.08333 72.168 3.47667 72.0467 2.926 71.804C2.37533 71.552 1.90867 71.2113 1.526 70.782C1.14333 70.3527 0.868 69.872 0.7 69.34L1.89 68.85C2.142 69.522 2.51533 70.04 3.01 70.404C3.514 70.7587 4.102 70.936 4.774 70.936C5.18467 70.936 5.544 70.8707 5.852 70.74C6.16 70.6093 6.398 70.4273 6.566 70.194C6.74333 69.9513 6.832 69.6713 6.832 69.354C6.832 68.9153 6.706 68.57 6.454 68.318C6.21133 68.0567 5.852 67.8607 5.376 67.73L3.458 67.142C2.702 66.9087 2.12333 66.54 1.722 66.036C1.32067 65.532 1.12 64.9533 1.12 64.3C1.12 63.7307 1.25533 63.2313 1.526 62.802C1.806 62.3633 2.18867 62.0227 2.674 61.78C3.16867 61.528 3.72867 61.402 4.354 61.402C4.97933 61.402 5.544 61.514 6.048 61.738C6.56133 61.962 6.99533 62.2653 7.35 62.648C7.70467 63.0213 7.966 63.4507 8.134 63.936L6.958 64.426C6.734 63.838 6.398 63.3947 5.95 63.096C5.502 62.788 4.97467 62.634 4.368 62.634C3.99467 62.634 3.66333 62.6993 3.374 62.83C3.094 62.9513 2.87467 63.1333 2.716 63.376C2.56667 63.6093 2.492 63.8893 2.492 64.216C2.492 64.5987 2.61333 64.9393 2.856 65.238C3.09867 65.5367 3.46733 65.7653 3.962 65.924L5.712 66.442C6.53333 66.694 7.154 67.0533 7.574 67.52C7.994 67.9867 8.204 68.5653 8.204 69.256C8.204 69.8253 8.05467 70.3293 7.756 70.768C7.46667 71.2067 7.06067 71.552 6.538 71.804C6.02467 72.0467 5.42733 72.168 4.746 72.168ZM13.5308 72.168C12.8028 72.168 12.1541 71.9953 11.5848 71.65C11.0154 71.3047 10.5674 70.8333 10.2408 70.236C9.91411 69.6293 9.75078 68.9527 9.75078 68.206C9.75078 67.45 9.90945 66.778 10.2268 66.19C10.5534 65.602 10.9921 65.14 11.5428 64.804C12.1028 64.4587 12.7281 64.286 13.4188 64.286C13.9788 64.286 14.4734 64.3887 14.9028 64.594C15.3414 64.79 15.7101 65.0607 16.0088 65.406C16.3168 65.742 16.5501 66.1293 16.7088 66.568C16.8768 66.9973 16.9608 67.4453 16.9608 67.912C16.9608 68.0147 16.9514 68.1313 16.9328 68.262C16.9234 68.3833 16.9094 68.5 16.8908 68.612H10.7028V67.492H16.1348L15.5188 67.996C15.6028 67.5107 15.5561 67.0767 15.3788 66.694C15.2014 66.3113 14.9401 66.008 14.5948 65.784C14.2494 65.56 13.8574 65.448 13.4188 65.448C12.9801 65.448 12.5788 65.56 12.2148 65.784C11.8508 66.008 11.5661 66.33 11.3608 66.75C11.1648 67.1607 11.0854 67.6507 11.1228 68.22C11.0854 68.7707 11.1694 69.256 11.3748 69.676C11.5894 70.0867 11.8881 70.4087 12.2708 70.642C12.6628 70.866 13.0874 70.978 13.5448 70.978C14.0488 70.978 14.4734 70.8613 14.8188 70.628C15.1641 70.3947 15.4441 70.096 15.6588 69.732L16.7508 70.292C16.6014 70.6373 16.3681 70.9547 16.0508 71.244C15.7428 71.524 15.3741 71.748 14.9448 71.916C14.5248 72.084 14.0534 72.168 13.5308 72.168ZM18.6584 72V61.402H19.9604V72H18.6584ZM25.4527 72.168C24.7247 72.168 24.076 71.9953 23.5067 71.65C22.9373 71.3047 22.4893 70.8333 22.1627 70.236C21.836 69.6293 21.6727 68.9527 21.6727 68.206C21.6727 67.45 21.8313 66.778 22.1487 66.19C22.4753 65.602 22.914 65.14 23.4647 64.804C24.0247 64.4587 24.65 64.286 25.3407 64.286C25.9007 64.286 26.3953 64.3887 26.8247 64.594C27.2633 64.79 27.632 65.0607 27.9307 65.406C28.2387 65.742 28.472 66.1293 28.6307 66.568C28.7987 66.9973 28.8827 67.4453 28.8827 67.912C28.8827 68.0147 28.8733 68.1313 28.8547 68.262C28.8453 68.3833 28.8313 68.5 28.8127 68.612H22.6247V67.492H28.0567L27.4407 67.996C27.5247 67.5107 27.478 67.0767 27.3007 66.694C27.1233 66.3113 26.862 66.008 26.5167 65.784C26.1713 65.56 25.7793 65.448 25.3407 65.448C24.902 65.448 24.5007 65.56 24.1367 65.784C23.7727 66.008 23.488 66.33 23.2827 66.75C23.0867 67.1607 23.0073 67.6507 23.0447 68.22C23.0073 68.7707 23.0913 69.256 23.2967 69.676C23.5113 70.0867 23.81 70.4087 24.1927 70.642C24.5847 70.866 25.0093 70.978 25.4667 70.978C25.9707 70.978 26.3953 70.8613 26.7407 70.628C27.086 70.3947 27.366 70.096 27.5807 69.732L28.6727 70.292C28.5233 70.6373 28.29 70.9547 27.9727 71.244C27.6647 71.524 27.296 71.748 26.8667 71.916C26.4467 72.084 25.9753 72.168 25.4527 72.168ZM34.0803 72.168C33.3429 72.168 32.6849 71.9953 32.1063 71.65C31.5369 71.3047 31.0889 70.8333 30.7623 70.236C30.4356 69.6387 30.2723 68.9667 30.2723 68.22C30.2723 67.464 30.4356 66.792 30.7623 66.204C31.0889 65.616 31.5369 65.1493 32.1063 64.804C32.6849 64.4587 33.3429 64.286 34.0803 64.286C34.5749 64.286 35.0369 64.3747 35.4663 64.552C35.8956 64.7293 36.2736 64.9673 36.6003 65.266C36.9269 65.5647 37.1649 65.9147 37.3143 66.316L36.1523 66.876C35.9749 66.484 35.7043 66.1667 35.3403 65.924C34.9763 65.672 34.5563 65.546 34.0803 65.546C33.6229 65.546 33.2076 65.6627 32.8343 65.896C32.4703 66.1293 32.1809 66.4467 31.9663 66.848C31.7516 67.2493 31.6443 67.7113 31.6443 68.234C31.6443 68.738 31.7516 69.1953 31.9663 69.606C32.1809 70.0073 32.4703 70.3247 32.8343 70.558C33.2076 70.7913 33.6229 70.908 34.0803 70.908C34.5563 70.908 34.9763 70.7867 35.3403 70.544C35.7043 70.292 35.9749 69.9607 36.1523 69.55L37.3143 70.138C37.1649 70.53 36.9269 70.88 36.6003 71.188C36.2736 71.4867 35.8956 71.7247 35.4663 71.902C35.0369 72.0793 34.5749 72.168 34.0803 72.168ZM42.0818 72.084C41.3445 72.084 40.7751 71.874 40.3738 71.454C39.9818 71.034 39.7858 70.4413 39.7858 69.676V65.7H38.4138V64.454H38.6938C39.0298 64.454 39.2958 64.3513 39.4918 64.146C39.6878 63.9407 39.7858 63.67 39.7858 63.334V62.718H41.0878V64.454H42.7818V65.7H41.0878V69.634C41.0878 69.886 41.1251 70.1053 41.1998 70.292C41.2838 70.4787 41.4191 70.628 41.6058 70.74C41.7925 70.8427 42.0398 70.894 42.3478 70.894C42.4131 70.894 42.4925 70.8893 42.5858 70.88C42.6885 70.8707 42.7818 70.8613 42.8658 70.852V72C42.7445 72.028 42.6091 72.0467 42.4598 72.056C42.3105 72.0747 42.1845 72.084 42.0818 72.084ZM47.1405 72V61.57H50.5565C51.6112 61.57 52.5305 61.7847 53.3145 62.214C54.0985 62.6433 54.7052 63.25 55.1345 64.034C55.5638 64.8087 55.7785 65.7233 55.7785 66.778C55.7785 67.8233 55.5638 68.738 55.1345 69.522C54.7052 70.306 54.0985 70.9173 53.3145 71.356C52.5305 71.7853 51.6112 72 50.5565 72H47.1405ZM48.5125 70.74H50.5705C51.3452 70.74 52.0125 70.5767 52.5725 70.25C53.1418 69.9233 53.5805 69.466 53.8885 68.878C54.1965 68.2807 54.3505 67.5807 54.3505 66.778C54.3505 65.966 54.1918 65.266 53.8745 64.678C53.5665 64.09 53.1278 63.6373 52.5585 63.32C51.9985 62.9933 51.3358 62.83 50.5705 62.83H48.5125V70.74ZM59.4798 72.168C58.9851 72.168 58.5464 72.0793 58.1638 71.902C57.7904 71.7153 57.4964 71.4633 57.2818 71.146C57.0671 70.8193 56.9598 70.446 56.9598 70.026C56.9598 69.6247 57.0438 69.2653 57.2118 68.948C57.3891 68.6213 57.6598 68.346 58.0238 68.122C58.3971 67.898 58.8638 67.7393 59.4238 67.646L62.2238 67.184V68.276L59.7178 68.696C59.2324 68.78 58.8778 68.934 58.6538 69.158C58.4391 69.382 58.3318 69.6573 58.3318 69.984C58.3318 70.292 58.4531 70.5487 58.6958 70.754C58.9478 70.9593 59.2604 71.062 59.6338 71.062C60.1098 71.062 60.5204 70.964 60.8658 70.768C61.2204 70.5627 61.4958 70.2873 61.6918 69.942C61.8971 69.5967 61.9998 69.214 61.9998 68.794V66.876C61.9998 66.4653 61.8458 66.134 61.5378 65.882C61.2391 65.6207 60.8424 65.49 60.3478 65.49C59.9184 65.49 59.5358 65.602 59.1998 65.826C58.8731 66.0407 58.6304 66.33 58.4718 66.694L57.3378 66.106C57.4778 65.7607 57.7018 65.4527 58.0098 65.182C58.3178 64.902 58.6771 64.6827 59.0878 64.524C59.4984 64.3653 59.9278 64.286 60.3758 64.286C60.9544 64.286 61.4631 64.398 61.9018 64.622C62.3404 64.8367 62.6811 65.14 62.9238 65.532C63.1758 65.9147 63.3018 66.3627 63.3018 66.876V72H62.0278V70.572L62.2658 70.656C62.1071 70.9547 61.8924 71.216 61.6218 71.44C61.3511 71.664 61.0338 71.8413 60.6698 71.972C60.3058 72.1027 59.9091 72.168 59.4798 72.168ZM68.2498 72.084C67.5124 72.084 66.9431 71.874 66.5418 71.454C66.1498 71.034 65.9538 70.4413 65.9538 69.676V65.7H64.5818V64.454H64.8618C65.1978 64.454 65.4638 64.3513 65.6598 64.146C65.8558 63.9407 65.9538 63.67 65.9538 63.334V62.718H67.2558V64.454H68.9498V65.7H67.2558V69.634C67.2558 69.886 67.2931 70.1053 67.3678 70.292C67.4518 70.4787 67.5871 70.628 67.7738 70.74C67.9604 70.8427 68.2078 70.894 68.5158 70.894C68.5811 70.894 68.6604 70.8893 68.7538 70.88C68.8564 70.8707 68.9498 70.8613 69.0338 70.852V72C68.9124 72.028 68.7771 72.0467 68.6278 72.056C68.4784 72.0747 68.3524 72.084 68.2498 72.084ZM74.0015 72.168C73.2735 72.168 72.6248 71.9953 72.0555 71.65C71.4862 71.3047 71.0382 70.8333 70.7115 70.236C70.3848 69.6293 70.2215 68.9527 70.2215 68.206C70.2215 67.45 70.3802 66.778 70.6975 66.19C71.0242 65.602 71.4628 65.14 72.0135 64.804C72.5735 64.4587 73.1988 64.286 73.8895 64.286C74.4495 64.286 74.9442 64.3887 75.3735 64.594C75.8122 64.79 76.1808 65.0607 76.4795 65.406C76.7875 65.742 77.0208 66.1293 77.1795 66.568C77.3475 66.9973 77.4315 67.4453 77.4315 67.912C77.4315 68.0147 77.4222 68.1313 77.4035 68.262C77.3942 68.3833 77.3802 68.5 77.3615 68.612H71.1735V67.492H76.6055L75.9895 67.996C76.0735 67.5107 76.0268 67.0767 75.8495 66.694C75.6722 66.3113 75.4108 66.008 75.0655 65.784C74.7202 65.56 74.3282 65.448 73.8895 65.448C73.4508 65.448 73.0495 65.56 72.6855 65.784C72.3215 66.008 72.0368 66.33 71.8315 66.75C71.6355 67.1607 71.5562 67.6507 71.5935 68.22C71.5562 68.7707 71.6402 69.256 71.8455 69.676C72.0602 70.0867 72.3588 70.4087 72.7415 70.642C73.1335 70.866 73.5582 70.978 74.0155 70.978C74.5195 70.978 74.9442 70.8613 75.2895 70.628C75.6348 70.3947 75.9148 70.096 76.1295 69.732L77.2215 70.292C77.0722 70.6373 76.8388 70.9547 76.5215 71.244C76.2135 71.524 75.8448 71.748 75.4155 71.916C74.9955 72.084 74.5242 72.168 74.0015 72.168Z" fill="#0DA2E7"/>
<rect x="94.99" y="36" width="64" height="4" rx="2" fill="#F3F5F7"/>
<rect x="210.99" width="48" height="48" rx="24" fill="#F3F5F7"/>
<path d="M234.99 32.3334C239.592 32.3334 243.323 28.6025 243.323 24.0001C243.323 19.3977 239.592 15.6667 234.99 15.6667C230.388 15.6667 226.657 19.3977 226.657 24.0001C226.657 28.6025 230.388 32.3334 234.99 32.3334Z" stroke="#627384" stroke-width="1.66667" stroke-linecap="round" stroke-linejoin="round"/>
<path d="M234.99 19V24L238.323 25.6667" stroke="#627384" stroke-width="1.66667" stroke-linecap="round" stroke-linejoin="round"/>
<path d="M196.954 72.168C196.217 72.168 195.535 72.0373 194.91 71.776C194.294 71.5053 193.753 71.1273 193.286 70.642C192.829 70.1567 192.474 69.5873 192.222 68.934C191.97 68.2807 191.844 67.5667 191.844 66.792C191.844 66.008 191.97 65.2893 192.222 64.636C192.474 63.9827 192.829 63.4133 193.286 62.928C193.743 62.4427 194.285 62.0693 194.91 61.808C195.535 61.5373 196.217 61.402 196.954 61.402C197.673 61.402 198.317 61.528 198.886 61.78C199.465 62.032 199.95 62.3587 200.342 62.76C200.743 63.1613 201.028 63.5907 201.196 64.048L199.936 64.622C199.693 64.0433 199.315 63.5767 198.802 63.222C198.289 62.858 197.673 62.676 196.954 62.676C196.226 62.676 195.577 62.8487 195.008 63.194C194.448 63.5393 194.009 64.02 193.692 64.636C193.375 65.252 193.216 65.9707 193.216 66.792C193.216 67.604 193.375 68.318 193.692 68.934C194.009 69.55 194.448 70.0307 195.008 70.376C195.577 70.7213 196.226 70.894 196.954 70.894C197.673 70.894 198.289 70.7167 198.802 70.362C199.315 69.998 199.693 69.5267 199.936 68.948L201.196 69.522C201.028 69.9793 200.743 70.4087 200.342 70.81C199.95 71.2113 199.465 71.538 198.886 71.79C198.317 72.042 197.673 72.168 196.954 72.168ZM202.908 72V61.402H204.21V65.924L203.972 65.798C204.159 65.322 204.458 64.9533 204.868 64.692C205.288 64.4213 205.778 64.286 206.338 64.286C206.88 64.286 207.36 64.4073 207.78 64.65C208.21 64.8927 208.546 65.2287 208.788 65.658C209.04 66.0873 209.166 66.5727 209.166 67.114V72H207.85V67.534C207.85 67.114 207.771 66.7593 207.612 66.47C207.463 66.1807 207.253 65.9567 206.982 65.798C206.712 65.63 206.399 65.546 206.044 65.546C205.699 65.546 205.386 65.63 205.106 65.798C204.826 65.9567 204.607 66.1853 204.448 66.484C204.29 66.7733 204.21 67.1233 204.21 67.534V72H202.908ZM214.613 72.168C213.885 72.168 213.227 72 212.639 71.664C212.051 71.3187 211.585 70.8473 211.239 70.25C210.894 69.6527 210.721 68.976 210.721 68.22C210.721 67.464 210.889 66.792 211.225 66.204C211.571 65.616 212.037 65.1493 212.625 64.804C213.213 64.4587 213.876 64.286 214.613 64.286C215.341 64.286 215.999 64.4587 216.587 64.804C217.175 65.14 217.637 65.602 217.973 66.19C218.319 66.778 218.491 67.4547 218.491 68.22C218.491 68.9853 218.314 69.6667 217.959 70.264C217.605 70.852 217.133 71.3187 216.545 71.664C215.967 72 215.323 72.168 214.613 72.168ZM214.613 70.908C215.08 70.908 215.5 70.7913 215.873 70.558C216.256 70.3247 216.555 70.0027 216.769 69.592C216.993 69.1813 217.105 68.724 217.105 68.22C217.105 67.7067 216.993 67.254 216.769 66.862C216.555 66.4607 216.256 66.1433 215.873 65.91C215.5 65.6673 215.08 65.546 214.613 65.546C214.137 65.546 213.708 65.6673 213.325 65.91C212.952 66.1433 212.653 66.4607 212.429 66.862C212.205 67.254 212.093 67.7067 212.093 68.22C212.093 68.724 212.205 69.1813 212.429 69.592C212.653 70.0027 212.952 70.3247 213.325 70.558C213.708 70.7913 214.137 70.908 214.613 70.908ZM223.773 72.168C223.045 72.168 222.387 72 221.799 71.664C221.211 71.3187 220.745 70.8473 220.399 70.25C220.054 69.6527 219.881 68.976 219.881 68.22C219.881 67.464 220.049 66.792 220.385 66.204C220.731 65.616 221.197 65.1493 221.785 64.804C222.373 64.4587 223.036 64.286 223.773 64.286C224.501 64.286 225.159 64.4587 225.747 64.804C226.335 65.14 226.797 65.602 227.133 66.19C227.479 66.778 227.651 67.4547 227.651 68.22C227.651 68.9853 227.474 69.6667 227.119 70.264C226.765 70.852 226.293 71.3187 225.705 71.664C225.127 72 224.483 72.168 223.773 72.168ZM223.773 70.908C224.24 70.908 224.66 70.7913 225.033 70.558C225.416 70.3247 225.715 70.0027 225.929 69.592C226.153 69.1813 226.265 68.724 226.265 68.22C226.265 67.7067 226.153 67.254 225.929 66.862C225.715 66.4607 225.416 66.1433 225.033 65.91C224.66 65.6673 224.24 65.546 223.773 65.546C223.297 65.546 222.868 65.6673 222.485 65.91C222.112 66.1433 221.813 66.4607 221.589 66.862C221.365 67.254 221.253 67.7067 221.253 68.22C221.253 68.724 221.365 69.1813 221.589 69.592C221.813 70.0027 222.112 70.3247 222.485 70.558C222.868 70.7913 223.297 70.908 223.773 70.908ZM232.052 72.168C231.296 72.168 230.638 71.9813 230.078 71.608C229.518 71.2347 229.121 70.7307 228.888 70.096L229.924 69.592C230.138 70.04 230.432 70.3947 230.806 70.656C231.179 70.9173 231.594 71.048 232.052 71.048C232.462 71.048 232.803 70.95 233.074 70.754C233.344 70.558 233.48 70.3013 233.48 69.984C233.48 69.76 233.414 69.5827 233.284 69.452C233.162 69.312 233.013 69.2047 232.836 69.13C232.658 69.046 232.495 68.9853 232.346 68.948L231.212 68.626C230.53 68.43 230.031 68.15 229.714 67.786C229.406 67.422 229.252 66.9973 229.252 66.512C229.252 66.064 229.364 65.6767 229.588 65.35C229.821 65.014 230.134 64.7527 230.526 64.566C230.927 64.3793 231.375 64.286 231.87 64.286C232.532 64.286 233.125 64.454 233.648 64.79C234.18 65.126 234.558 65.5973 234.782 66.204L233.718 66.694C233.55 66.302 233.298 65.994 232.962 65.77C232.626 65.5367 232.248 65.42 231.828 65.42C231.445 65.42 231.142 65.518 230.918 65.714C230.694 65.9007 230.582 66.1387 230.582 66.428C230.582 66.6427 230.638 66.82 230.75 66.96C230.862 67.0907 230.997 67.1933 231.156 67.268C231.314 67.3333 231.468 67.3893 231.618 67.436L232.85 67.8C233.466 67.9773 233.942 68.2527 234.278 68.626C234.623 68.9993 234.796 69.4473 234.796 69.97C234.796 70.39 234.679 70.768 234.446 71.104C234.212 71.44 233.89 71.7013 233.48 71.888C233.069 72.0747 232.593 72.168 232.052 72.168ZM239.972 72.168C239.244 72.168 238.595 71.9953 238.026 71.65C237.457 71.3047 237.009 70.8333 236.682 70.236C236.355 69.6293 236.192 68.9527 236.192 68.206C236.192 67.45 236.351 66.778 236.668 66.19C236.995 65.602 237.433 65.14 237.984 64.804C238.544 64.4587 239.169 64.286 239.86 64.286C240.42 64.286 240.915 64.3887 241.344 64.594C241.783 64.79 242.151 65.0607 242.45 65.406C242.758 65.742 242.991 66.1293 243.15 66.568C243.318 66.9973 243.402 67.4453 243.402 67.912C243.402 68.0147 243.393 68.1313 243.374 68.262C243.365 68.3833 243.351 68.5 243.332 68.612H237.144V67.492H242.576L241.96 67.996C242.044 67.5107 241.997 67.0767 241.82 66.694C241.643 66.3113 241.381 66.008 241.036 65.784C240.691 65.56 240.299 65.448 239.86 65.448C239.421 65.448 239.02 65.56 238.656 65.784C238.292 66.008 238.007 66.33 237.802 66.75C237.606 67.1607 237.527 67.6507 237.564 68.22C237.527 68.7707 237.611 69.256 237.816 69.676C238.031 70.0867 238.329 70.4087 238.712 70.642C239.104 70.866 239.529 70.978 239.986 70.978C240.49 70.978 240.915 70.8613 241.26 70.628C241.605 70.3947 241.885 70.096 242.1 69.732L243.192 70.292C243.043 70.6373 242.809 70.9547 242.492 71.244C242.184 71.524 241.815 71.748 241.386 71.916C240.966 72.084 240.495 72.168 239.972 72.168ZM249.494 72V62.83H246.666V61.57H253.666V62.83H250.88V72H249.494ZM254.834 72V64.454H256.136V72H254.834ZM254.834 63.25V61.57H256.136V63.25H254.834ZM258.156 72V64.454H259.43V65.994L259.248 65.756C259.435 65.28 259.734 64.916 260.144 64.664C260.555 64.412 261.017 64.286 261.53 64.286C262.118 64.286 262.646 64.4493 263.112 64.776C263.588 65.1027 263.915 65.532 264.092 66.064L263.728 66.078C263.924 65.49 264.256 65.0467 264.722 64.748C265.189 64.44 265.707 64.286 266.276 64.286C266.799 64.286 267.27 64.4073 267.69 64.65C268.12 64.8927 268.46 65.2287 268.712 65.658C268.964 66.0873 269.09 66.5727 269.09 67.114V72H267.774V67.534C267.774 67.114 267.7 66.7593 267.55 66.47C267.401 66.1807 267.196 65.9567 266.934 65.798C266.682 65.63 266.384 65.546 266.038 65.546C265.702 65.546 265.399 65.63 265.128 65.798C264.867 65.9567 264.657 66.1853 264.498 66.484C264.349 66.7733 264.274 67.1233 264.274 67.534V72H262.958V67.534C262.958 67.114 262.884 66.7593 262.734 66.47C262.585 66.1807 262.38 65.9567 262.118 65.798C261.866 65.63 261.568 65.546 261.222 65.546C260.886 65.546 260.583 65.63 260.312 65.798C260.051 65.9567 259.841 66.1853 259.682 66.484C259.533 66.7733 259.458 67.1233 259.458 67.534V72H258.156ZM274.411 72.168C273.683 72.168 273.035 71.9953 272.465 71.65C271.896 71.3047 271.448 70.8333 271.121 70.236C270.795 69.6293 270.631 68.9527 270.631 68.206C270.631 67.45 270.79 66.778 271.107 66.19C271.434 65.602 271.873 65.14 272.423 64.804C272.983 64.4587 273.609 64.286 274.299 64.286C274.859 64.286 275.354 64.3887 275.783 64.594C276.222 64.79 276.591 65.0607 276.889 65.406C277.197 65.742 277.431 66.1293 277.589 66.568C277.757 66.9973 277.841 67.4453 277.841 67.912C277.841 68.0147 277.832 68.1313 277.813 68.262C277.804 68.3833 277.79 68.5 277.771 68.612H271.583V67.492H277.015L276.399 67.996C276.483 67.5107 276.437 67.0767 276.259 66.694C276.082 66.3113 275.821 66.008 275.475 65.784C275.13 65.56 274.738 65.448 274.299 65.448C273.861 65.448 273.459 65.56 273.095 65.784C272.731 66.008 272.447 66.33 272.241 66.75C272.045 67.1607 271.966 67.6507 272.003 68.22C271.966 68.7707 272.05 69.256 272.255 69.676C272.47 70.0867 272.769 70.4087 273.151 70.642C273.543 70.866 273.968 70.978 274.425 70.978C274.929 70.978 275.354 70.8613 275.699 70.628C276.045 70.3947 276.325 70.096 276.539 69.732L277.631 70.292C277.482 70.6373 277.249 70.9547 276.931 71.244C276.623 71.524 276.255 71.748 275.825 71.916C275.405 72.084 274.934 72.168 274.411 72.168Z" fill="#627384"/>
<rect x="294.99" y="36" width="64" height="4" rx="2" fill="#F3F5F7"/>
<rect x="406.49" width="48" height="48" rx="24" fill="#F3F5F7"/>
<path d="M436.323 31.5V29.8333C436.323 28.9493 435.972 28.1014 435.347 27.4763C434.722 26.8512 433.874 26.5 432.99 26.5H427.99C427.106 26.5 426.258 26.8512 425.633 27.4763C425.008 28.1014 424.657 28.9493 424.657 29.8333V31.5" stroke="#627384" stroke-width="1.66667" stroke-linecap="round" stroke-linejoin="round"/>
<path d="M430.49 23.1667C432.331 23.1667 433.823 21.6743 433.823 19.8333C433.823 17.9924 432.331 16.5 430.49 16.5C428.649 16.5 427.157 17.9924 427.157 19.8333C427.157 21.6743 428.649 23.1667 430.49 23.1667Z" stroke="#627384" stroke-width="1.66667" stroke-linecap="round" stroke-linejoin="round"/>
<path d="M394.756 72V67.226L391.144 61.57H392.698L395.722 66.316H395.162L398.172 61.57H399.726L396.142 67.226V72H394.756ZM403.115 72.168C402.387 72.168 401.729 72 401.141 71.664C400.553 71.3187 400.087 70.8473 399.741 70.25C399.396 69.6527 399.223 68.976 399.223 68.22C399.223 67.464 399.391 66.792 399.727 66.204C400.073 65.616 400.539 65.1493 401.127 64.804C401.715 64.4587 402.378 64.286 403.115 64.286C403.843 64.286 404.501 64.4587 405.089 64.804C405.677 65.14 406.139 65.602 406.475 66.19C406.821 66.778 406.993 67.4547 406.993 68.22C406.993 68.9853 406.816 69.6667 406.461 70.264C406.107 70.852 405.635 71.3187 405.047 71.664C404.469 72 403.825 72.168 403.115 72.168ZM403.115 70.908C403.582 70.908 404.002 70.7913 404.375 70.558C404.758 70.3247 405.057 70.0027 405.271 69.592C405.495 69.1813 405.607 68.724 405.607 68.22C405.607 67.7067 405.495 67.254 405.271 66.862C405.057 66.4607 404.758 66.1433 404.375 65.91C404.002 65.6673 403.582 65.546 403.115 65.546C402.639 65.546 402.21 65.6673 401.827 65.91C401.454 66.1433 401.155 66.4607 400.931 66.862C400.707 67.254 400.595 67.7067 400.595 68.22C400.595 68.724 400.707 69.1813 400.931 69.592C401.155 70.0027 401.454 70.3247 401.827 70.558C402.21 70.7913 402.639 70.908 403.115 70.908ZM411.365 72.168C410.824 72.168 410.334 72.042 409.895 71.79C409.466 71.538 409.13 71.188 408.887 70.74C408.654 70.2827 408.537 69.76 408.537 69.172V64.454H409.839V69.032C409.839 69.4053 409.914 69.732 410.063 70.012C410.222 70.292 410.437 70.5113 410.707 70.67C410.987 70.8287 411.305 70.908 411.659 70.908C412.014 70.908 412.327 70.8287 412.597 70.67C412.877 70.5113 413.092 70.2827 413.241 69.984C413.4 69.6853 413.479 69.3307 413.479 68.92V64.454H414.795V72H413.521V70.53L413.731 70.656C413.554 71.132 413.251 71.5053 412.821 71.776C412.401 72.0373 411.916 72.168 411.365 72.168ZM416.812 72V64.454H418.086V65.84L417.946 65.644C418.124 65.2147 418.394 64.8973 418.758 64.692C419.122 64.4773 419.566 64.37 420.088 64.37H420.55V65.602H419.892C419.36 65.602 418.931 65.77 418.604 66.106C418.278 66.4327 418.114 66.8993 418.114 67.506V72H416.812ZM424.281 72V61.57H427.697C428.752 61.57 429.671 61.7847 430.455 62.214C431.239 62.6433 431.846 63.25 432.275 64.034C432.704 64.8087 432.919 65.7233 432.919 66.778C432.919 67.8233 432.704 68.738 432.275 69.522C431.846 70.306 431.239 70.9173 430.455 71.356C429.671 71.7853 428.752 72 427.697 72H424.281ZM425.653 70.74H427.711C428.486 70.74 429.153 70.5767 429.713 70.25C430.282 69.9233 430.721 69.466 431.029 68.878C431.337 68.2807 431.491 67.5807 431.491 66.778C431.491 65.966 431.332 65.266 431.015 64.678C430.707 64.09 430.268 63.6373 429.699 63.32C429.139 62.9933 428.476 62.83 427.711 62.83H425.653V70.74ZM437.976 72.168C437.248 72.168 436.599 71.9953 436.03 71.65C435.461 71.3047 435.013 70.8333 434.686 70.236C434.359 69.6293 434.196 68.9527 434.196 68.206C434.196 67.45 434.355 66.778 434.672 66.19C434.999 65.602 435.437 65.14 435.988 64.804C436.548 64.4587 437.173 64.286 437.864 64.286C438.424 64.286 438.919 64.3887 439.348 64.594C439.787 64.79 440.155 65.0607 440.454 65.406C440.762 65.742 440.995 66.1293 441.154 66.568C441.322 66.9973 441.406 67.4453 441.406 67.912C441.406 68.0147 441.397 68.1313 441.378 68.262C441.369 68.3833 441.355 68.5 441.336 68.612H435.148V67.492H440.58L439.964 67.996C440.048 67.5107 440.001 67.0767 439.824 66.694C439.647 66.3113 439.385 66.008 439.04 65.784C438.695 65.56 438.303 65.448 437.864 65.448C437.425 65.448 437.024 65.56 436.66 65.784C436.296 66.008 436.011 66.33 435.806 66.75C435.61 67.1607 435.531 67.6507 435.568 68.22C435.531 68.7707 435.615 69.256 435.82 69.676C436.035 70.0867 436.333 70.4087 436.716 70.642C437.108 70.866 437.533 70.978 437.99 70.978C438.494 70.978 438.919 70.8613 439.264 70.628C439.609 70.3947 439.889 70.096 440.104 69.732L441.196 70.292C441.047 70.6373 440.813 70.9547 440.496 71.244C440.188 71.524 439.819 71.748 439.39 71.916C438.97 72.084 438.499 72.168 437.976 72.168ZM446.169 72.084C445.432 72.084 444.863 71.874 444.461 71.454C444.069 71.034 443.873 70.4413 443.873 69.676V65.7H442.501V64.454H442.781C443.117 64.454 443.383 64.3513 443.579 64.146C443.775 63.9407 443.873 63.67 443.873 63.334V62.718H445.175V64.454H446.869V65.7H445.175V69.634C445.175 69.886 445.213 70.1053 445.287 70.292C445.371 70.4787 445.507 70.628 445.693 70.74C445.88 70.8427 446.127 70.894 446.435 70.894C446.501 70.894 446.58 70.8893 446.673 70.88C446.776 70.8707 446.869 70.8613 446.953 70.852V72C446.832 72.028 446.697 72.0467 446.547 72.056C446.398 72.0747 446.272 72.084 446.169 72.084ZM450.771 72.168C450.276 72.168 449.837 72.0793 449.455 71.902C449.081 71.7153 448.787 71.4633 448.573 71.146C448.358 70.8193 448.251 70.446 448.251 70.026C448.251 69.6247 448.335 69.2653 448.503 68.948C448.68 68.6213 448.951 68.346 449.315 68.122C449.688 67.898 450.155 67.7393 450.715 67.646L453.515 67.184V68.276L451.009 68.696C450.523 68.78 450.169 68.934 449.945 69.158C449.73 69.382 449.623 69.6573 449.623 69.984C449.623 70.292 449.744 70.5487 449.987 70.754C450.239 70.9593 450.551 71.062 450.925 71.062C451.401 71.062 451.811 70.964 452.157 70.768C452.511 70.5627 452.787 70.2873 452.983 69.942C453.188 69.5967 453.291 69.214 453.291 68.794V66.876C453.291 66.4653 453.137 66.134 452.829 65.882C452.53 65.6207 452.133 65.49 451.639 65.49C451.209 65.49 450.827 65.602 450.491 65.826C450.164 66.0407 449.921 66.33 449.763 66.694L448.629 66.106C448.769 65.7607 448.993 65.4527 449.301 65.182C449.609 64.902 449.968 64.6827 450.379 64.524C450.789 64.3653 451.219 64.286 451.667 64.286C452.245 64.286 452.754 64.398 453.193 64.622C453.631 64.8367 453.972 65.14 454.215 65.532C454.467 65.9147 454.593 66.3627 454.593 66.876V72H453.319V70.572L453.557 70.656C453.398 70.9547 453.183 71.216 452.913 71.44C452.642 71.664 452.325 71.8413 451.961 71.972C451.597 72.1027 451.2 72.168 450.771 72.168ZM456.611 72V64.454H457.913V72H456.611ZM456.611 63.25V61.57H457.913V63.25H456.611ZM459.934 72V61.402H461.236V72H459.934ZM465.958 72.168C465.202 72.168 464.544 71.9813 463.984 71.608C463.424 71.2347 463.027 70.7307 462.794 70.096L463.83 69.592C464.045 70.04 464.339 70.3947 464.712 70.656C465.085 70.9173 465.501 71.048 465.958 71.048C466.369 71.048 466.709 70.95 466.98 70.754C467.251 70.558 467.386 70.3013 467.386 69.984C467.386 69.76 467.321 69.5827 467.19 69.452C467.069 69.312 466.919 69.2047 466.742 69.13C466.565 69.046 466.401 68.9853 466.252 68.948L465.118 68.626C464.436 68.43 463.937 68.15 463.62 67.786C463.312 67.422 463.158 66.9973 463.158 66.512C463.158 66.064 463.27 65.6767 463.494 65.35C463.727 65.014 464.04 64.7527 464.432 64.566C464.833 64.3793 465.281 64.286 465.776 64.286C466.439 64.286 467.031 64.454 467.554 64.79C468.086 65.126 468.464 65.5973 468.688 66.204L467.624 66.694C467.456 66.302 467.204 65.994 466.868 65.77C466.532 65.5367 466.154 65.42 465.734 65.42C465.351 65.42 465.048 65.518 464.824 65.714C464.6 65.9007 464.488 66.1387 464.488 66.428C464.488 66.6427 464.544 66.82 464.656 66.96C464.768 67.0907 464.903 67.1933 465.062 67.268C465.221 67.3333 465.375 67.3893 465.524 67.436L466.756 67.8C467.372 67.9773 467.848 68.2527 468.184 68.626C468.529 68.9993 468.702 69.4473 468.702 69.97C468.702 70.39 468.585 70.768 468.352 71.104C468.119 71.44 467.797 71.7013 467.386 71.888C466.975 72.0747 466.499 72.168 465.958 72.168Z" fill="#627384"/>
<rect x="485.99" y="36" width="64" height="4" rx="2" fill="#F3F5F7"/>
<rect x="585.49" width="48" height="48" rx="24" fill="#F3F5F7"/>
<path d="M617.657 22.3333C618.038 24.2011 617.767 26.1428 616.889 27.8348C616.011 29.5268 614.58 30.8667 612.834 31.6311C611.088 32.3955 609.132 32.5381 607.294 32.0353C605.455 31.5325 603.844 30.4145 602.73 28.8678C601.616 27.3212 601.066 25.4394 601.171 23.5361C601.277 21.6329 602.032 19.8234 603.31 18.4093C604.588 16.9952 606.312 16.062 608.195 15.7654C610.078 15.4687 612.006 15.8265 613.657 16.7792" stroke="#627384" stroke-width="1.66667" stroke-linecap="round" stroke-linejoin="round"/>
<path d="M606.99 23.1666L609.49 25.6666L617.823 17.3333" stroke="#627384" stroke-width="1.66667" stroke-linecap="round" stroke-linejoin="round"/>
<path d="M587.954 72.168C587.217 72.168 586.535 72.0373 585.91 71.776C585.294 71.5053 584.753 71.1273 584.286 70.642C583.829 70.1567 583.474 69.5873 583.222 68.934C582.97 68.2807 582.844 67.5667 582.844 66.792C582.844 66.008 582.97 65.2893 583.222 64.636C583.474 63.9827 583.829 63.4133 584.286 62.928C584.743 62.4427 585.285 62.0693 585.91 61.808C586.535 61.5373 587.217 61.402 587.954 61.402C588.673 61.402 589.317 61.528 589.886 61.78C590.465 62.032 590.95 62.3587 591.342 62.76C591.743 63.1613 592.028 63.5907 592.196 64.048L590.936 64.622C590.693 64.0433 590.315 63.5767 589.802 63.222C589.289 62.858 588.673 62.676 587.954 62.676C587.226 62.676 586.577 62.8487 586.008 63.194C585.448 63.5393 585.009 64.02 584.692 64.636C584.375 65.252 584.216 65.9707 584.216 66.792C584.216 67.604 584.375 68.318 584.692 68.934C585.009 69.55 585.448 70.0307 586.008 70.376C586.577 70.7213 587.226 70.894 587.954 70.894C588.673 70.894 589.289 70.7167 589.802 70.362C590.315 69.998 590.693 69.5267 590.936 68.948L592.196 69.522C592.028 69.9793 591.743 70.4087 591.342 70.81C590.95 71.2113 590.465 71.538 589.886 71.79C589.317 72.042 588.673 72.168 587.954 72.168ZM597.355 72.168C596.627 72.168 595.969 72 595.381 71.664C594.793 71.3187 594.327 70.8473 593.981 70.25C593.636 69.6527 593.463 68.976 593.463 68.22C593.463 67.464 593.631 66.792 593.967 66.204C594.313 65.616 594.779 65.1493 595.367 64.804C595.955 64.4587 596.618 64.286 597.355 64.286C598.083 64.286 598.741 64.4587 599.329 64.804C599.917 65.14 600.379 65.602 600.715 66.19C601.061 66.778 601.233 67.4547 601.233 68.22C601.233 68.9853 601.056 69.6667 600.701 70.264C600.347 70.852 599.875 71.3187 599.287 71.664C598.709 72 598.065 72.168 597.355 72.168ZM597.355 70.908C597.822 70.908 598.242 70.7913 598.615 70.558C598.998 70.3247 599.297 70.0027 599.511 69.592C599.735 69.1813 599.847 68.724 599.847 68.22C599.847 67.7067 599.735 67.254 599.511 66.862C599.297 66.4607 598.998 66.1433 598.615 65.91C598.242 65.6673 597.822 65.546 597.355 65.546C596.879 65.546 596.45 65.6673 596.067 65.91C595.694 66.1433 595.395 66.4607 595.171 66.862C594.947 67.254 594.835 67.7067 594.835 68.22C594.835 68.724 594.947 69.1813 595.171 69.592C595.395 70.0027 595.694 70.3247 596.067 70.558C596.45 70.7913 596.879 70.908 597.355 70.908ZM602.932 72V64.454H604.206V65.924L603.996 65.798C604.182 65.322 604.481 64.9533 604.892 64.692C605.312 64.4213 605.802 64.286 606.362 64.286C606.903 64.286 607.384 64.4073 607.804 64.65C608.233 64.8927 608.569 65.2287 608.812 65.658C609.064 66.0873 609.19 66.5727 609.19 67.114V72H607.874V67.534C607.874 67.114 607.799 66.7593 607.65 66.47C607.5 66.1807 607.286 65.9567 607.006 65.798C606.735 65.63 606.422 65.546 606.068 65.546C605.713 65.546 605.396 65.63 605.116 65.798C604.845 65.9567 604.63 66.1853 604.472 66.484C604.313 66.7733 604.234 67.1233 604.234 67.534V72H602.932ZM611.851 72V65.7H610.409V64.454H611.851V63.922C611.851 63.3807 611.967 62.9233 612.201 62.55C612.443 62.1767 612.761 61.892 613.153 61.696C613.554 61.5 613.997 61.402 614.483 61.402C614.585 61.402 614.697 61.4113 614.819 61.43C614.949 61.4393 615.057 61.4533 615.141 61.472V62.634C615.066 62.6153 614.977 62.606 614.875 62.606C614.772 62.5967 614.693 62.592 614.637 62.592C614.207 62.592 613.853 62.6947 613.573 62.9C613.302 63.1053 613.167 63.446 613.167 63.922V64.454H617.087V65.7H613.167V72H611.851ZM616.275 72V64.454H617.591V72H616.275ZM619.393 72V64.454H620.667V65.84L620.527 65.644C620.704 65.2147 620.975 64.8973 621.339 64.692C621.703 64.4773 622.146 64.37 622.669 64.37H623.131V65.602H622.473C621.941 65.602 621.511 65.77 621.185 66.106C620.858 66.4327 620.695 66.8993 620.695 67.506V72H619.393ZM624.287 72V64.454H625.561V65.994L625.379 65.756C625.566 65.28 625.864 64.916 626.275 64.664C626.686 64.412 627.148 64.286 627.661 64.286C628.249 64.286 628.776 64.4493 629.243 64.776C629.719 65.1027 630.046 65.532 630.223 66.064L629.859 66.078C630.055 65.49 630.386 65.0467 630.853 64.748C631.32 64.44 631.838 64.286 632.407 64.286C632.93 64.286 633.401 64.4073 633.821 64.65C634.25 64.8927 634.591 65.2287 634.843 65.658C635.095 66.0873 635.221 66.5727 635.221 67.114V72H633.905V67.534C633.905 67.114 633.83 66.7593 633.681 66.47C633.532 66.1807 633.326 65.9567 633.065 65.798C632.813 65.63 632.514 65.546 632.169 65.546C631.833 65.546 631.53 65.63 631.259 65.798C630.998 65.9567 630.788 66.1853 630.629 66.484C630.48 66.7733 630.405 67.1233 630.405 67.534V72H629.089V67.534C629.089 67.114 629.014 66.7593 628.865 66.47C628.716 66.1807 628.51 65.9567 628.249 65.798C627.997 65.63 627.698 65.546 627.353 65.546C627.017 65.546 626.714 65.63 626.443 65.798C626.182 65.9567 625.972 66.1853 625.813 66.484C625.664 66.7733 625.589 67.1233 625.589 67.534V72H624.287Z" fill="#627384"/>
</svg>
