<svg width="896" height="36" viewBox="0 0 896 36" fill="none" xmlns="http://www.w3.org/2000/svg">
<rect x="16" y="17.5" width="313" height="1" fill="url(#paint0_linear_1_18)"/>
<rect x="345" width="206" height="36" rx="18" fill="#0DA2E7" fill-opacity="0.1"/>
<path d="M370.008 24V13.57H374.404C375.095 13.57 375.683 13.6913 376.168 13.934C376.663 14.1673 377.041 14.5033 377.302 14.942C377.573 15.3713 377.708 15.894 377.708 16.51C377.708 16.986 377.577 17.434 377.316 17.854C377.064 18.2647 376.658 18.6053 376.098 18.876V17.994C376.611 18.19 377.017 18.4327 377.316 18.722C377.615 19.0113 377.825 19.3333 377.946 19.688C378.067 20.0427 378.128 20.416 378.128 20.808C378.128 21.8067 377.797 22.5907 377.134 23.16C376.481 23.72 375.571 24 374.404 24H370.008ZM371.912 22.32H374.6C375.095 22.32 375.487 22.1847 375.776 21.914C376.075 21.634 376.224 21.2653 376.224 20.808C376.224 20.3507 376.075 19.982 375.776 19.702C375.487 19.422 375.095 19.282 374.6 19.282H371.912V22.32ZM371.912 17.616H374.502C374.894 17.616 375.207 17.504 375.44 17.28C375.673 17.0467 375.79 16.748 375.79 16.384C375.79 16.02 375.673 15.7307 375.44 15.516C375.207 15.3013 374.894 15.194 374.502 15.194H371.912V17.616ZM385.526 24.168C384.76 24.168 384.046 24.0327 383.384 23.762C382.721 23.4913 382.142 23.1133 381.648 22.628C381.153 22.1427 380.766 21.5733 380.486 20.92C380.215 20.2573 380.08 19.5433 380.08 18.778C380.08 18.0033 380.215 17.2893 380.486 16.636C380.756 15.9827 381.139 15.4133 381.634 14.928C382.128 14.4427 382.707 14.0693 383.37 13.808C384.032 13.5373 384.751 13.402 385.526 13.402C386.3 13.402 387.019 13.5373 387.682 13.808C388.344 14.0787 388.923 14.4567 389.418 14.942C389.912 15.418 390.295 15.9827 390.566 16.636C390.846 17.2893 390.986 18.0033 390.986 18.778C390.986 19.5433 390.846 20.2573 390.566 20.92C390.286 21.5733 389.898 22.1427 389.404 22.628C388.909 23.1133 388.33 23.4913 387.668 23.762C387.014 24.0327 386.3 24.168 385.526 24.168ZM385.526 22.432C386.039 22.432 386.51 22.3433 386.94 22.166C387.369 21.9793 387.742 21.7227 388.06 21.396C388.386 21.0693 388.634 20.682 388.802 20.234C388.979 19.786 389.068 19.3007 389.068 18.778C389.068 18.2553 388.979 17.7747 388.802 17.336C388.634 16.888 388.386 16.5007 388.06 16.174C387.742 15.838 387.369 15.5813 386.94 15.404C386.51 15.2267 386.039 15.138 385.526 15.138C385.022 15.138 384.555 15.2267 384.126 15.404C383.696 15.5813 383.318 15.838 382.992 16.174C382.674 16.5007 382.427 16.888 382.25 17.336C382.072 17.7747 381.984 18.2553 381.984 18.778C381.984 19.3007 382.072 19.786 382.25 20.234C382.427 20.682 382.674 21.0693 382.992 21.396C383.318 21.7227 383.696 21.9793 384.126 22.166C384.555 22.3433 385.022 22.432 385.526 22.432ZM398.517 24.168C397.751 24.168 397.037 24.0327 396.375 23.762C395.712 23.4913 395.133 23.1133 394.639 22.628C394.144 22.1427 393.757 21.5733 393.477 20.92C393.206 20.2573 393.071 19.5433 393.071 18.778C393.071 18.0033 393.206 17.2893 393.477 16.636C393.747 15.9827 394.13 15.4133 394.625 14.928C395.119 14.4427 395.698 14.0693 396.361 13.808C397.023 13.5373 397.742 13.402 398.517 13.402C399.291 13.402 400.01 13.5373 400.673 13.808C401.335 14.0787 401.914 14.4567 402.409 14.942C402.903 15.418 403.286 15.9827 403.557 16.636C403.837 17.2893 403.977 18.0033 403.977 18.778C403.977 19.5433 403.837 20.2573 403.557 20.92C403.277 21.5733 402.889 22.1427 402.395 22.628C401.9 23.1133 401.321 23.4913 400.659 23.762C400.005 24.0327 399.291 24.168 398.517 24.168ZM398.517 22.432C399.03 22.432 399.501 22.3433 399.931 22.166C400.36 21.9793 400.733 21.7227 401.051 21.396C401.377 21.0693 401.625 20.682 401.793 20.234C401.97 19.786 402.059 19.3007 402.059 18.778C402.059 18.2553 401.97 17.7747 401.793 17.336C401.625 16.888 401.377 16.5007 401.051 16.174C400.733 15.838 400.36 15.5813 399.931 15.404C399.501 15.2267 399.03 15.138 398.517 15.138C398.013 15.138 397.546 15.2267 397.117 15.404C396.687 15.5813 396.309 15.838 395.983 16.174C395.665 16.5007 395.418 16.888 395.241 17.336C395.063 17.7747 394.975 18.2553 394.975 18.778C394.975 19.3007 395.063 19.786 395.241 20.234C395.418 20.682 395.665 21.0693 395.983 21.396C396.309 21.7227 396.687 21.9793 397.117 22.166C397.546 22.3433 398.013 22.432 398.517 22.432ZM406.37 24V13.57H408.274V19.002L407.756 18.82L412.194 13.57H414.588L410.43 18.498L410.542 17.154L414.714 24H412.474L409.674 19.408L408.274 21.074V24H406.37ZM418.906 24L422.504 13.57H424.968L428.566 24H426.494L425.752 21.76H421.72L420.964 24H418.906ZM422.266 20.08H425.206L423.47 14.886H424.002L422.266 20.08ZM430.427 24V13.57H434.319C435.028 13.57 435.653 13.7007 436.195 13.962C436.745 14.214 437.175 14.5873 437.483 15.082C437.791 15.5673 437.945 16.16 437.945 16.86C437.945 17.5507 437.786 18.1433 437.469 18.638C437.161 19.1233 436.736 19.4967 436.195 19.758C435.653 20.0193 435.028 20.15 434.319 20.15H432.331V24H430.427ZM432.331 18.47H434.347C434.692 18.47 434.991 18.4047 435.243 18.274C435.495 18.134 435.691 17.9427 435.831 17.7C435.971 17.4573 436.041 17.1773 436.041 16.86C436.041 16.5333 435.971 16.2533 435.831 16.02C435.691 15.7773 435.495 15.5907 435.243 15.46C434.991 15.32 434.692 15.25 434.347 15.25H432.331V18.47ZM440.205 24V13.57H444.097C444.806 13.57 445.432 13.7007 445.973 13.962C446.524 14.214 446.953 14.5873 447.261 15.082C447.569 15.5673 447.723 16.16 447.723 16.86C447.723 17.5507 447.564 18.1433 447.247 18.638C446.939 19.1233 446.514 19.4967 445.973 19.758C445.432 20.0193 444.806 20.15 444.097 20.15H442.109V24H440.205ZM442.109 18.47H444.125C444.47 18.47 444.769 18.4047 445.021 18.274C445.273 18.134 445.469 17.9427 445.609 17.7C445.749 17.4573 445.819 17.1773 445.819 16.86C445.819 16.5333 445.749 16.2533 445.609 16.02C445.469 15.7773 445.273 15.5907 445.021 15.46C444.769 15.32 444.47 15.25 444.125 15.25H442.109V18.47ZM455.121 24.168C454.356 24.168 453.642 24.0327 452.979 23.762C452.316 23.4913 451.738 23.1133 451.243 22.628C450.748 22.1427 450.361 21.5733 450.081 20.92C449.81 20.2573 449.675 19.5433 449.675 18.778C449.675 18.0033 449.81 17.2893 450.081 16.636C450.352 15.9827 450.734 15.4133 451.229 14.928C451.724 14.4427 452.302 14.0693 452.965 13.808C453.628 13.5373 454.346 13.402 455.121 13.402C455.896 13.402 456.614 13.5373 457.277 13.808C457.94 14.0787 458.518 14.4567 459.013 14.942C459.508 15.418 459.89 15.9827 460.161 16.636C460.441 17.2893 460.581 18.0033 460.581 18.778C460.581 19.5433 460.441 20.2573 460.161 20.92C459.881 21.5733 459.494 22.1427 458.999 22.628C458.504 23.1133 457.926 23.4913 457.263 23.762C456.61 24.0327 455.896 24.168 455.121 24.168ZM455.121 22.432C455.634 22.432 456.106 22.3433 456.535 22.166C456.964 21.9793 457.338 21.7227 457.655 21.396C457.982 21.0693 458.229 20.682 458.397 20.234C458.574 19.786 458.663 19.3007 458.663 18.778C458.663 18.2553 458.574 17.7747 458.397 17.336C458.229 16.888 457.982 16.5007 457.655 16.174C457.338 15.838 456.964 15.5813 456.535 15.404C456.106 15.2267 455.634 15.138 455.121 15.138C454.617 15.138 454.15 15.2267 453.721 15.404C453.292 15.5813 452.914 15.838 452.587 16.174C452.27 16.5007 452.022 16.888 451.845 17.336C451.668 17.7747 451.579 18.2553 451.579 18.778C451.579 19.3007 451.668 19.786 451.845 20.234C452.022 20.682 452.27 21.0693 452.587 21.396C452.914 21.7227 453.292 21.9793 453.721 22.166C454.15 22.3433 454.617 22.432 455.121 22.432ZM462.974 24V13.57H464.878V24H462.974ZM467.584 24V13.57H469.068L474.808 21.298L474.038 21.452V13.57H475.942V24H474.444L468.788 16.216L469.488 16.062V24H467.584ZM480.509 24V15.25H477.807V13.57H485.087V15.25H482.427V24H480.509ZM486.949 24V13.57H488.769L492.675 18.876H491.807L495.629 13.57H497.449V24H495.531V15.74L496.273 15.922L492.311 21.2H492.087L488.223 15.922L488.853 15.74V24H486.949ZM500.145 24V13.57H507.075V15.25H502.049V17.924H506.795V19.604H502.049V22.32H507.075V24H500.145ZM509.171 24V13.57H510.655L516.395 21.298L515.625 21.452V13.57H517.529V24H516.031L510.375 16.216L511.075 16.062V24H509.171ZM522.096 24V15.25H519.394V13.57H526.674V15.25H524.014V24H522.096Z" fill="#0DA2E7"/>
<rect x="567" y="17.5" width="313" height="1" fill="url(#paint1_linear_1_18)"/>
<defs>
<linearGradient id="paint0_linear_1_18" x1="16" y1="18" x2="329" y2="18" gradientUnits="userSpaceOnUse">
<stop stop-color="#E0E6EB" stop-opacity="0"/>
<stop offset="0.5" stop-color="#E0E6EB"/>
<stop offset="1" stop-color="#E0E6EB"/>
</linearGradient>
<linearGradient id="paint1_linear_1_18" x1="880" y1="18" x2="567" y2="18" gradientUnits="userSpaceOnUse">
<stop stop-color="#E0E6EB" stop-opacity="0"/>
<stop offset="0.5" stop-color="#E0E6EB"/>
<stop offset="1" stop-color="#E0E6EB"/>
</linearGradient>
</defs>
</svg>
