<svg width="138" height="40" viewBox="0 0 138 40" fill="none" xmlns="http://www.w3.org/2000/svg">
<path d="M14.6667 23.28V25.28C14.6675 25.4657 14.6294 25.6494 14.555 25.8195C14.4807 25.9897 14.3716 26.1424 14.2348 26.2679C14.0979 26.3934 13.9364 26.489 13.7605 26.5485C13.5847 26.6079 13.3983 26.63 13.2134 26.6133C11.1619 26.3904 9.19137 25.6894 7.46004 24.5667C5.84926 23.5431 4.48359 22.1774 3.46004 20.5667C2.33336 18.8275 1.6322 16.8473 1.41337 14.7866C1.39671 14.6023 1.41862 14.4165 1.4777 14.2411C1.53679 14.0656 1.63175 13.9044 1.75655 13.7677C1.88134 13.631 2.03324 13.5218 2.20256 13.447C2.37189 13.3722 2.55493 13.3335 2.74004 13.3333H4.74004C5.06357 13.3301 5.37723 13.4447 5.62254 13.6557C5.86786 13.8666 6.02809 14.1596 6.07337 14.48C6.15779 15.12 6.31434 15.7485 6.54004 16.3533C6.62973 16.5919 6.64915 16.8513 6.59597 17.1006C6.5428 17.3499 6.41928 17.5787 6.24004 17.76L5.39337 18.6066C6.34241 20.2757 7.72434 21.6576 9.39337 22.6067L10.24 21.76C10.4213 21.5807 10.6501 21.4572 10.8994 21.404C11.1488 21.3509 11.4081 21.3703 11.6467 21.46C12.2516 21.6857 12.88 21.8422 13.52 21.9267C13.8439 21.9723 14.1396 22.1355 14.3511 22.385C14.5625 22.6345 14.6748 22.953 14.6667 23.28Z" stroke="#627384" stroke-width="1.33333" stroke-linecap="round" stroke-linejoin="round"/>
<path d="M26.492 26V16.76H24.518V15.57H27.878V26H26.492ZM33.7557 26.168C33.0557 26.168 32.435 26.028 31.8937 25.748C31.3617 25.468 30.9417 25.09 30.6337 24.614C30.335 24.1287 30.1857 23.5873 30.1857 22.99C30.1857 22.318 30.3724 21.73 30.7457 21.226C31.119 20.722 31.6324 20.3627 32.2857 20.148L32.2577 20.498C31.763 20.302 31.3757 19.9893 31.0957 19.56C30.825 19.1213 30.6897 18.65 30.6897 18.146C30.6897 17.614 30.8204 17.1427 31.0817 16.732C31.3524 16.3213 31.7164 15.9993 32.1737 15.766C32.6404 15.5233 33.1677 15.402 33.7557 15.402C34.3437 15.402 34.8664 15.5187 35.3237 15.752C35.781 15.9853 36.1404 16.312 36.4017 16.732C36.6724 17.1427 36.8077 17.614 36.8077 18.146C36.8077 18.678 36.663 19.154 36.3737 19.574C36.0937 19.994 35.7204 20.3067 35.2537 20.512L35.2117 20.148C35.8744 20.3627 36.3924 20.7267 36.7657 21.24C37.139 21.744 37.3257 22.3273 37.3257 22.99C37.3257 23.5873 37.1717 24.1287 36.8637 24.614C36.565 25.09 36.145 25.468 35.6037 25.748C35.0717 26.028 34.4557 26.168 33.7557 26.168ZM33.7557 24.978C34.1944 24.978 34.577 24.894 34.9037 24.726C35.2304 24.558 35.4824 24.3247 35.6597 24.026C35.8464 23.718 35.9397 23.368 35.9397 22.976C35.9397 22.5747 35.8464 22.2247 35.6597 21.926C35.4824 21.618 35.2304 21.3847 34.9037 21.226C34.577 21.058 34.1944 20.974 33.7557 20.974C33.317 20.974 32.9297 21.058 32.5937 21.226C32.267 21.3847 32.015 21.618 31.8377 21.926C31.6604 22.2247 31.5717 22.5747 31.5717 22.976C31.5717 23.368 31.6604 23.718 31.8377 24.026C32.015 24.3247 32.267 24.558 32.5937 24.726C32.9297 24.894 33.317 24.978 33.7557 24.978ZM33.7557 19.784C34.073 19.784 34.353 19.714 34.5957 19.574C34.8477 19.434 35.0484 19.2473 35.1977 19.014C35.347 18.7713 35.4217 18.4913 35.4217 18.174C35.4217 17.8567 35.347 17.5813 35.1977 17.348C35.0484 17.1147 34.8477 16.9327 34.5957 16.802C34.353 16.662 34.073 16.592 33.7557 16.592C33.429 16.592 33.1397 16.662 32.8877 16.802C32.6357 16.9327 32.435 17.1147 32.2857 17.348C32.1364 17.5813 32.0617 17.8567 32.0617 18.174C32.0617 18.4913 32.1364 18.7713 32.2857 19.014C32.435 19.2473 32.6357 19.434 32.8877 19.574C33.1397 19.714 33.429 19.784 33.7557 19.784ZM43.2324 26.168C42.4017 26.168 41.6737 25.944 41.0484 25.496C40.4324 25.0387 39.9517 24.4087 39.6064 23.606C39.2611 22.794 39.0884 21.8513 39.0884 20.778C39.0884 19.7047 39.2611 18.7667 39.6064 17.964C39.9517 17.152 40.4324 16.522 41.0484 16.074C41.6644 15.626 42.3877 15.402 43.2184 15.402C44.0491 15.402 44.7724 15.626 45.3884 16.074C46.0044 16.522 46.4851 17.152 46.8304 17.964C47.1851 18.7667 47.3624 19.7047 47.3624 20.778C47.3624 21.8513 47.1897 22.794 46.8444 23.606C46.4991 24.418 46.0137 25.048 45.3884 25.496C44.7724 25.944 44.0537 26.168 43.2324 26.168ZM43.2324 24.894C43.7924 24.894 44.2777 24.726 44.6884 24.39C45.0991 24.0447 45.4164 23.564 45.6404 22.948C45.8737 22.332 45.9904 21.6087 45.9904 20.778C45.9904 19.9473 45.8737 19.224 45.6404 18.608C45.4164 17.992 45.0944 17.516 44.6744 17.18C44.2637 16.844 43.7784 16.676 43.2184 16.676C42.6584 16.676 42.1731 16.844 41.7624 17.18C41.3517 17.516 41.0297 17.992 40.7964 18.608C40.5724 19.224 40.4604 19.9473 40.4604 20.778C40.4604 21.5993 40.5724 22.318 40.7964 22.934C41.0297 23.55 41.3517 24.0307 41.7624 24.376C42.1824 24.7213 42.6724 24.894 43.2324 24.894ZM53.3633 26.168C52.5326 26.168 51.8046 25.944 51.1793 25.496C50.5633 25.0387 50.0826 24.4087 49.7373 23.606C49.3919 22.794 49.2193 21.8513 49.2193 20.778C49.2193 19.7047 49.3919 18.7667 49.7373 17.964C50.0826 17.152 50.5633 16.522 51.1793 16.074C51.7953 15.626 52.5186 15.402 53.3493 15.402C54.1799 15.402 54.9033 15.626 55.5193 16.074C56.1353 16.522 56.6159 17.152 56.9613 17.964C57.3159 18.7667 57.4933 19.7047 57.4933 20.778C57.4933 21.8513 57.3206 22.794 56.9753 23.606C56.6299 24.418 56.1446 25.048 55.5193 25.496C54.9033 25.944 54.1846 26.168 53.3633 26.168ZM53.3633 24.894C53.9233 24.894 54.4086 24.726 54.8193 24.39C55.2299 24.0447 55.5473 23.564 55.7713 22.948C56.0046 22.332 56.1213 21.6087 56.1213 20.778C56.1213 19.9473 56.0046 19.224 55.7713 18.608C55.5473 17.992 55.2253 17.516 54.8053 17.18C54.3946 16.844 53.9093 16.676 53.3493 16.676C52.7893 16.676 52.3039 16.844 51.8933 17.18C51.4826 17.516 51.1606 17.992 50.9273 18.608C50.7033 19.224 50.5913 19.9473 50.5913 20.778C50.5913 21.5993 50.7033 22.318 50.9273 22.934C51.1606 23.55 51.4826 24.0307 51.8933 24.376C52.3133 24.7213 52.8033 24.894 53.3633 24.894ZM59.6301 23.102V21.884H65.9301V23.102H59.6301ZM69.6404 26V16.76H67.6664V15.57H71.0264V26H69.6404ZM73.2501 26V25.048L76.1341 21.926C76.7035 21.3193 77.1561 20.82 77.4921 20.428C77.8375 20.036 78.0895 19.686 78.2481 19.378C78.4068 19.07 78.4861 18.7433 78.4861 18.398C78.4861 17.8287 78.3181 17.39 77.9821 17.082C77.6461 16.774 77.2028 16.62 76.6521 16.62C76.0921 16.62 75.6161 16.7833 75.2241 17.11C74.8321 17.4273 74.5615 17.88 74.4121 18.468L73.1661 18.146C73.2875 17.586 73.5115 17.1007 73.8381 16.69C74.1648 16.2793 74.5708 15.962 75.0561 15.738C75.5415 15.514 76.0735 15.402 76.6521 15.402C77.2868 15.402 77.8421 15.528 78.3181 15.78C78.8035 16.0227 79.1815 16.3633 79.4521 16.802C79.7321 17.2407 79.8721 17.7493 79.8721 18.328C79.8721 18.7107 79.7928 19.084 79.6341 19.448C79.4755 19.812 79.2421 20.1993 78.9341 20.61C78.6261 21.0113 78.2248 21.478 77.7301 22.01L75.1541 24.81H80.0961V26H73.2501ZM84.991 26.168C84.4403 26.168 83.927 26.07 83.451 25.874C82.975 25.678 82.5643 25.4027 82.219 25.048C81.8737 24.684 81.617 24.2547 81.449 23.76L82.611 23.284C82.807 23.8067 83.115 24.2127 83.535 24.502C83.955 24.7913 84.4403 24.936 84.991 24.936C85.4203 24.936 85.803 24.852 86.139 24.684C86.475 24.516 86.7363 24.2733 86.923 23.956C87.119 23.6387 87.217 23.256 87.217 22.808C87.217 22.3507 87.119 21.968 86.923 21.66C86.7363 21.3427 86.475 21.1 86.139 20.932C85.803 20.764 85.4157 20.68 84.977 20.68C84.837 20.68 84.683 20.6893 84.515 20.708C84.3563 20.7267 84.221 20.7547 84.109 20.792L83.815 20.162L86.601 16.76H81.981V15.57H88.155V16.718L85.495 19.994L85.411 19.63C86.0363 19.6487 86.587 19.7933 87.063 20.064C87.539 20.3347 87.9123 20.7033 88.183 21.17C88.4537 21.6273 88.589 22.164 88.589 22.78C88.589 23.4147 88.435 23.9887 88.127 24.502C87.819 25.0153 87.3943 25.4213 86.853 25.72C86.3117 26.0187 85.691 26.168 84.991 26.168ZM90.6379 23.102V21.884H96.9379V23.102H90.6379ZM103.882 26V23.592H98.7583V22.458L103.854 15.57H105.17V22.458H106.528V23.592H105.17V26H103.882ZM99.7943 22.948L99.5983 22.458H103.882V16.718L104.288 16.83L99.7943 22.948ZM111.284 26.168C110.743 26.168 110.234 26.0747 109.758 25.888C109.282 25.692 108.867 25.4167 108.512 25.062C108.167 24.698 107.915 24.2733 107.756 23.788L108.876 23.312C109.072 23.8253 109.389 24.2267 109.828 24.516C110.276 24.796 110.761 24.936 111.284 24.936C111.713 24.936 112.091 24.8427 112.418 24.656C112.754 24.46 113.015 24.194 113.202 23.858C113.389 23.5127 113.482 23.13 113.482 22.71C113.482 22.2713 113.384 21.884 113.188 21.548C113.001 21.212 112.745 20.9507 112.418 20.764C112.091 20.568 111.718 20.47 111.298 20.47C110.869 20.47 110.477 20.568 110.122 20.764C109.767 20.96 109.511 21.2073 109.352 21.506L108.246 21.268L109.044 15.57H114.448V16.76H109.562L110.094 16.228L109.478 20.652L109.002 20.372C109.31 19.98 109.669 19.7 110.08 19.532C110.5 19.3547 110.953 19.266 111.438 19.266C112.119 19.266 112.717 19.42 113.23 19.728C113.743 20.036 114.145 20.4467 114.434 20.96C114.723 21.4733 114.868 22.0567 114.868 22.71C114.868 23.3633 114.709 23.9513 114.392 24.474C114.084 24.9967 113.659 25.412 113.118 25.72C112.586 26.0187 111.975 26.168 111.284 26.168ZM119.925 26.168C119.253 26.168 118.656 26.0187 118.133 25.72C117.62 25.4213 117.214 25.0153 116.915 24.502C116.616 23.9793 116.467 23.3867 116.467 22.724C116.467 22.36 116.509 22.0007 116.593 21.646C116.677 21.2913 116.812 20.932 116.999 20.568C117.186 20.204 117.424 19.826 117.713 19.434L120.653 15.57H122.305L118.707 20.246L118.455 20.218C118.595 20.0313 118.749 19.8867 118.917 19.784C119.094 19.6813 119.281 19.6067 119.477 19.56C119.682 19.5133 119.897 19.49 120.121 19.49C120.737 19.49 121.288 19.6347 121.773 19.924C122.268 20.204 122.655 20.5913 122.935 21.086C123.224 21.5807 123.369 22.15 123.369 22.794C123.369 23.438 123.22 24.0167 122.921 24.53C122.622 25.034 122.212 25.4353 121.689 25.734C121.176 26.0233 120.588 26.168 119.925 26.168ZM119.925 24.936C120.317 24.936 120.667 24.8473 120.975 24.67C121.283 24.4833 121.526 24.2267 121.703 23.9C121.89 23.5733 121.983 23.2093 121.983 22.808C121.983 22.388 121.894 22.024 121.717 21.716C121.54 21.3987 121.297 21.1467 120.989 20.96C120.681 20.7733 120.326 20.68 119.925 20.68C119.533 20.68 119.178 20.7733 118.861 20.96C118.544 21.1467 118.296 21.3987 118.119 21.716C117.942 22.024 117.853 22.388 117.853 22.808C117.853 23.2093 117.942 23.5733 118.119 23.9C118.306 24.2267 118.553 24.4833 118.861 24.67C119.178 24.8473 119.533 24.936 119.925 24.936ZM125.17 26L129.748 16.76H124.638V15.57H131.19V16.76L126.654 26H125.17Z" fill="#627384"/>
</svg>
