<svg width="144" height="40" viewBox="0 0 144 40" fill="none" xmlns="http://www.w3.org/2000/svg">
<rect width="40" height="40" rx="12" fill="url(#paint0_linear_1_1367)"/>
<path d="M25.8333 21.6667C27.075 20.45 28.3333 18.9917 28.3333 17.0833C28.3333 15.8678 27.8504 14.702 26.9909 13.8424C26.1314 12.9829 24.9656 12.5 23.75 12.5C22.2833 12.5 21.25 12.9167 20 14.1667C18.75 12.9167 17.7167 12.5 16.25 12.5C15.0344 12.5 13.8686 12.9829 13.0091 13.8424C12.1495 14.702 11.6667 15.8678 11.6667 17.0833C11.6667 19 12.9167 20.4583 14.1667 21.6667L20 27.5L25.8333 21.6667Z" stroke="white" stroke-width="1.66667" stroke-linecap="round" stroke-linejoin="round"/>
<path d="M49.44 28V13.1H52.04L57.62 20.68H56.38L61.84 13.1H64.44V28H61.7V16.2L62.76 16.46L57.1 24H56.78L51.26 16.46L52.16 16.2V28H49.44ZM72.2316 28.24C71.1116 28.24 70.1316 27.9867 69.2916 27.48C68.4516 26.9733 67.7982 26.2867 67.3316 25.42C66.8649 24.5533 66.6316 23.5933 66.6316 22.54C66.6316 21.4467 66.8649 20.48 67.3316 19.64C67.8116 18.7867 68.4582 18.1133 69.2716 17.62C70.0982 17.1267 71.0182 16.88 72.0316 16.88C72.8849 16.88 73.6316 17.02 74.2716 17.3C74.9249 17.58 75.4782 17.9667 75.9316 18.46C76.3849 18.9533 76.7316 19.52 76.9716 20.16C77.2116 20.7867 77.3316 21.4667 77.3316 22.2C77.3316 22.3867 77.3182 22.58 77.2916 22.78C77.2782 22.98 77.2449 23.1533 77.1916 23.3H68.7916V21.3H75.7116L74.4716 22.24C74.5916 21.6267 74.5582 21.08 74.3716 20.6C74.1982 20.12 73.9049 19.74 73.4916 19.46C73.0916 19.18 72.6049 19.04 72.0316 19.04C71.4849 19.04 70.9982 19.18 70.5716 19.46C70.1449 19.7267 69.8182 20.1267 69.5916 20.66C69.3782 21.18 69.2982 21.8133 69.3516 22.56C69.2982 23.2267 69.3849 23.82 69.6116 24.34C69.8516 24.8467 70.1982 25.24 70.6516 25.52C71.1182 25.8 71.6516 25.94 72.2516 25.94C72.8516 25.94 73.3582 25.8133 73.7716 25.56C74.1982 25.3067 74.5316 24.9667 74.7716 24.54L76.8916 25.58C76.6782 26.1 76.3449 26.56 75.8916 26.96C75.4382 27.36 74.8982 27.6733 74.2716 27.9C73.6582 28.1267 72.9782 28.24 72.2316 28.24ZM84.3776 28.24C83.3243 28.24 82.3843 27.9933 81.5576 27.5C80.731 26.9933 80.0776 26.3067 79.5976 25.44C79.1176 24.5733 78.8776 23.6133 78.8776 22.56C78.8776 21.4933 79.1176 20.5333 79.5976 19.68C80.0776 18.8267 80.731 18.1467 81.5576 17.64C82.3976 17.1333 83.331 16.88 84.3576 16.88C85.1843 16.88 85.9176 17.0467 86.5576 17.38C87.211 17.7 87.7243 18.1533 88.0976 18.74L87.6976 19.28V12.86H90.3176V28H87.8376V25.9L88.1176 26.42C87.7443 27.0067 87.2243 27.46 86.5576 27.78C85.891 28.0867 85.1643 28.24 84.3776 28.24ZM84.6576 25.84C85.2576 25.84 85.7843 25.7 86.2376 25.42C86.691 25.14 87.0443 24.7533 87.2976 24.26C87.5643 23.7667 87.6976 23.2 87.6976 22.56C87.6976 21.9333 87.5643 21.3733 87.2976 20.88C87.0443 20.3733 86.691 19.98 86.2376 19.7C85.7843 19.42 85.2576 19.28 84.6576 19.28C84.071 19.28 83.5443 19.4267 83.0776 19.72C82.611 20 82.2443 20.3867 81.9776 20.88C81.7243 21.36 81.5976 21.92 81.5976 22.56C81.5976 23.2 81.7243 23.7667 81.9776 24.26C82.2443 24.7533 82.611 25.14 83.0776 25.42C83.5443 25.7 84.071 25.84 84.6576 25.84ZM92.7551 28V17.12H95.3751V28H92.7551ZM92.7551 15.9V13.1H95.3751V15.9H92.7551ZM105.014 28.24C103.948 28.24 102.961 28.0467 102.054 27.66C101.161 27.2733 100.374 26.7333 99.6942 26.04C99.0275 25.3467 98.5075 24.5333 98.1342 23.6C97.7609 22.6667 97.5742 21.6467 97.5742 20.54C97.5742 19.4333 97.7542 18.4133 98.1142 17.48C98.4875 16.5333 99.0075 15.72 99.6742 15.04C100.354 14.3467 101.148 13.8133 102.054 13.44C102.961 13.0533 103.948 12.86 105.014 12.86C106.081 12.86 107.034 13.04 107.874 13.4C108.728 13.76 109.448 14.24 110.034 14.84C110.621 15.4267 111.041 16.0733 111.294 16.78L108.854 17.92C108.574 17.1733 108.101 16.56 107.434 16.08C106.768 15.5867 105.961 15.34 105.014 15.34C104.081 15.34 103.254 15.56 102.534 16C101.828 16.44 101.274 17.0467 100.874 17.82C100.488 18.5933 100.294 19.5 100.294 20.54C100.294 21.58 100.488 22.4933 100.874 23.28C101.274 24.0533 101.828 24.66 102.534 25.1C103.254 25.54 104.081 25.76 105.014 25.76C105.961 25.76 106.768 25.52 107.434 25.04C108.101 24.5467 108.574 23.9267 108.854 23.18L111.294 24.32C111.041 25.0267 110.621 25.68 110.034 26.28C109.448 26.8667 108.728 27.34 107.874 27.7C107.034 28.06 106.081 28.24 105.014 28.24ZM116.387 28.24C115.627 28.24 114.967 28.1133 114.407 27.86C113.847 27.6067 113.414 27.2467 113.107 26.78C112.801 26.3 112.647 25.7467 112.647 25.12C112.647 24.52 112.781 23.9867 113.047 23.52C113.314 23.04 113.727 22.64 114.287 22.32C114.847 22 115.554 21.7733 116.407 21.64L119.967 21.06V23.06L116.907 23.58C116.387 23.6733 116.001 23.84 115.747 24.08C115.494 24.32 115.367 24.6333 115.367 25.02C115.367 25.3933 115.507 25.6933 115.787 25.92C116.081 26.1333 116.441 26.24 116.867 26.24C117.414 26.24 117.894 26.1267 118.307 25.9C118.734 25.66 119.061 25.3333 119.287 24.92C119.527 24.5067 119.647 24.0533 119.647 23.56V20.76C119.647 20.2933 119.461 19.9067 119.087 19.6C118.727 19.28 118.247 19.12 117.647 19.12C117.087 19.12 116.587 19.2733 116.147 19.58C115.721 19.8733 115.407 20.2667 115.207 20.76L113.067 19.72C113.281 19.1467 113.614 18.6533 114.067 18.24C114.534 17.8133 115.081 17.48 115.707 17.24C116.334 17 117.014 16.88 117.747 16.88C118.641 16.88 119.427 17.0467 120.107 17.38C120.787 17.7 121.314 18.1533 121.687 18.74C122.074 19.3133 122.267 19.9867 122.267 20.76V28H119.787V26.14L120.347 26.1C120.067 26.5667 119.734 26.96 119.347 27.28C118.961 27.5867 118.521 27.8267 118.027 28C117.534 28.16 116.987 28.24 116.387 28.24ZM124.689 28V17.12H127.149V19.54L126.949 19.18C127.202 18.3667 127.595 17.8 128.129 17.48C128.675 17.16 129.329 17 130.089 17H130.729V19.32H129.789C129.042 19.32 128.442 19.5533 127.989 20.02C127.535 20.4733 127.309 21.1133 127.309 21.94V28H124.689ZM137.329 28.24C136.209 28.24 135.229 27.9867 134.389 27.48C133.549 26.9733 132.896 26.2867 132.429 25.42C131.963 24.5533 131.729 23.5933 131.729 22.54C131.729 21.4467 131.963 20.48 132.429 19.64C132.909 18.7867 133.556 18.1133 134.369 17.62C135.196 17.1267 136.116 16.88 137.129 16.88C137.983 16.88 138.729 17.02 139.369 17.3C140.023 17.58 140.576 17.9667 141.029 18.46C141.483 18.9533 141.829 19.52 142.069 20.16C142.309 20.7867 142.429 21.4667 142.429 22.2C142.429 22.3867 142.416 22.58 142.389 22.78C142.376 22.98 142.343 23.1533 142.289 23.3H133.889V21.3H140.809L139.569 22.24C139.689 21.6267 139.656 21.08 139.469 20.6C139.296 20.12 139.003 19.74 138.589 19.46C138.189 19.18 137.703 19.04 137.129 19.04C136.583 19.04 136.096 19.18 135.669 19.46C135.243 19.7267 134.916 20.1267 134.689 20.66C134.476 21.18 134.396 21.8133 134.449 22.56C134.396 23.2267 134.483 23.82 134.709 24.34C134.949 24.8467 135.296 25.24 135.749 25.52C136.216 25.8 136.749 25.94 137.349 25.94C137.949 25.94 138.456 25.8133 138.869 25.56C139.296 25.3067 139.629 24.9667 139.869 24.54L141.989 25.58C141.776 26.1 141.443 26.56 140.989 26.96C140.536 27.36 139.996 27.6733 139.369 27.9C138.756 28.1267 138.076 28.24 137.329 28.24Z" fill="#1D2630"/>
<defs>
<linearGradient id="paint0_linear_1_1367" x1="0" y1="0" x2="40" y2="40" gradientUnits="userSpaceOnUse">
<stop stop-color="#0DA2E7"/>
<stop offset="1" stop-color="#1ABC9C"/>
</linearGradient>
</defs>
</svg>
