<svg width="660" height="76" viewBox="0 0 660 76" fill="none" xmlns="http://www.w3.org/2000/svg">
<path d="M16 43V41C16 39.9391 15.5786 38.9217 14.8284 38.1716C14.0783 37.4214 13.0609 37 12 37H6C4.93913 37 3.92172 37.4214 3.17157 38.1716C2.42143 38.9217 2 39.9391 2 41V43" stroke="#0DA2E7" stroke-width="2" stroke-linecap="round" stroke-linejoin="round"/>
<path d="M9 33C11.2091 33 13 31.2091 13 29C13 26.7909 11.2091 25 9 25C6.79086 25 5 26.7909 5 29C5 31.2091 6.79086 33 9 33Z" stroke="#0DA2E7" stroke-width="2" stroke-linecap="round" stroke-linejoin="round"/>
<path d="M22 43V41C21.9993 40.1137 21.7044 39.2528 21.1614 38.5523C20.6184 37.8519 19.8581 37.3516 19 37.13" stroke="#0DA2E7" stroke-width="2" stroke-linecap="round" stroke-linejoin="round"/>
<path d="M16 25.13C16.8604 25.3503 17.623 25.8507 18.1676 26.5523C18.7122 27.2539 19.0078 28.1168 19.0078 29.005C19.0078 29.8932 18.7122 30.7561 18.1676 31.4577C17.623 32.1593 16.8604 32.6597 16 32.88" stroke="#0DA2E7" stroke-width="2" stroke-linecap="round" stroke-linejoin="round"/>
<path d="M40.91 46.36C39.73 46.36 38.6 46.14 37.52 45.7C36.46 45.26 35.54 44.64 34.76 43.84C34 43.02 33.48 42.05 33.2 40.93L36.74 39.67C37.08 40.69 37.63 41.45 38.39 41.95C39.15 42.43 39.99 42.67 40.91 42.67C41.67 42.67 42.34 42.51 42.92 42.19C43.52 41.85 43.98 41.39 44.3 40.81C44.62 40.21 44.78 39.52 44.78 38.74C44.78 37.96 44.61 37.28 44.27 36.7C43.95 36.12 43.5 35.67 42.92 35.35C42.34 35.01 41.67 34.84 40.91 34.84C40.13 34.84 39.42 35.01 38.78 35.35C38.16 35.69 37.71 36.18 37.43 36.82L34.1 36.07L35.87 23.65H48.05V27.1H37.49L39.02 25.33L37.76 34.69L36.59 33.73C37.15 32.91 37.83 32.31 38.63 31.93C39.45 31.55 40.44 31.36 41.6 31.36C43.08 31.36 44.36 31.68 45.44 32.32C46.54 32.96 47.39 33.83 47.99 34.93C48.59 36.03 48.89 37.3 48.89 38.74C48.89 40.18 48.54 41.48 47.84 42.64C47.14 43.8 46.19 44.71 44.99 45.37C43.79 46.03 42.43 46.36 40.91 46.36ZM61.077 46.36C59.297 46.36 57.737 45.88 56.397 44.92C55.057 43.96 54.007 42.61 53.247 40.87C52.507 39.13 52.137 37.11 52.137 34.81C52.137 32.49 52.507 30.47 53.247 28.75C53.987 27.03 55.027 25.69 56.367 24.73C57.707 23.77 59.267 23.29 61.047 23.29C62.867 23.29 64.437 23.77 65.757 24.73C67.097 25.69 68.147 27.04 68.907 28.78C69.667 30.5 70.047 32.51 70.047 34.81C70.047 37.11 69.667 39.13 68.907 40.87C68.167 42.59 67.127 43.94 65.787 44.92C64.447 45.88 62.877 46.36 61.077 46.36ZM61.107 42.64C62.127 42.64 62.997 42.33 63.717 41.71C64.437 41.07 64.987 40.17 65.367 39.01C65.767 37.83 65.967 36.43 65.967 34.81C65.967 33.19 65.767 31.8 65.367 30.64C64.987 29.46 64.427 28.56 63.687 27.94C62.967 27.32 62.087 27.01 61.047 27.01C60.047 27.01 59.187 27.32 58.467 27.94C57.747 28.56 57.187 29.46 56.787 30.64C56.407 31.8 56.217 33.19 56.217 34.81C56.217 36.41 56.407 37.8 56.787 38.98C57.187 40.14 57.747 41.04 58.467 41.68C59.207 42.32 60.087 42.64 61.107 42.64ZM73.8573 46V23.65H77.9373V35.29L76.8273 34.9L86.3373 23.65H91.4673L82.5573 34.21L82.7973 31.33L91.7373 46H86.9373L80.9373 36.16L77.9373 39.73V46H73.8573ZM100.279 46V40.18H94.4586V36.79H100.279V31H103.669V36.79H109.459V40.18H103.669V46H100.279Z" fill="#0DA2E7"/>
<path d="M3.976 72L0.154 61.57H1.316L4.676 71.006H4.452L7.798 61.57H8.974L5.152 72H3.976ZM12.9295 72.168C12.2295 72.168 11.5949 72 11.0255 71.664C10.4655 71.3187 10.0222 70.8473 9.69555 70.25C9.36888 69.6527 9.20555 68.976 9.20555 68.22C9.20555 67.464 9.36421 66.7967 9.68155 66.218C9.99888 65.63 10.4282 65.168 10.9695 64.832C11.5202 64.496 12.1362 64.328 12.8175 64.328C13.3589 64.328 13.8395 64.4307 14.2595 64.636C14.6889 64.832 15.0529 65.1027 15.3515 65.448C15.6502 65.784 15.8789 66.1667 16.0375 66.596C16.1962 67.016 16.2755 67.45 16.2755 67.898C16.2755 67.9913 16.2709 68.0987 16.2615 68.22C16.2522 68.332 16.2382 68.4487 16.2195 68.57H9.87755V67.59H15.6175L15.1135 68.01C15.1975 67.4967 15.1369 67.0393 14.9315 66.638C14.7355 66.2273 14.4509 65.9053 14.0775 65.672C13.7042 65.4293 13.2842 65.308 12.8175 65.308C12.3509 65.308 11.9169 65.4293 11.5155 65.672C11.1235 65.9147 10.8155 66.2553 10.5915 66.694C10.3675 67.1233 10.2789 67.6367 10.3255 68.234C10.2789 68.8313 10.3722 69.354 10.6055 69.802C10.8482 70.2407 11.1749 70.5813 11.5855 70.824C12.0055 71.0667 12.4535 71.188 12.9295 71.188C13.4802 71.188 13.9422 71.0573 14.3155 70.796C14.6889 70.5347 14.9922 70.208 15.2255 69.816L16.1215 70.292C15.9722 70.628 15.7435 70.9407 15.4355 71.23C15.1275 71.51 14.7589 71.7387 14.3295 71.916C13.9095 72.084 13.4429 72.168 12.9295 72.168ZM18.1268 72V64.496H19.1768V65.728L19.0368 65.546C19.2142 65.1913 19.4802 64.9113 19.8348 64.706C20.1988 64.5007 20.6375 64.398 21.1508 64.398H21.6268V65.448H20.9688C20.4275 65.448 19.9935 65.616 19.6668 65.952C19.3402 66.288 19.1768 66.764 19.1768 67.38V72H18.1268ZM22.8573 72V64.496H23.9073V72H22.8573ZM22.8573 63.11V61.57H23.9073V63.11H22.8573ZM26.8265 72V65.546H25.3285V64.496H26.8265V63.824C26.8265 63.3013 26.9432 62.8627 27.1765 62.508C27.4098 62.144 27.7178 61.8687 28.1005 61.682C28.4832 61.4953 28.8938 61.402 29.3325 61.402C29.4258 61.402 29.5332 61.4113 29.6545 61.43C29.7758 61.4393 29.8738 61.4533 29.9485 61.472V62.424C29.8832 62.4053 29.7945 62.396 29.6825 62.396C29.5705 62.3867 29.4912 62.382 29.4445 62.382C28.9965 62.382 28.6232 62.4893 28.3245 62.704C28.0258 62.9187 27.8765 63.292 27.8765 63.824V64.496H32.0905V65.546H27.8765V72H26.8265ZM31.2085 72V64.496H32.2585V72H31.2085ZM37.621 72.168C36.921 72.168 36.2863 72 35.717 71.664C35.157 71.3187 34.7136 70.8473 34.387 70.25C34.0603 69.6527 33.897 68.976 33.897 68.22C33.897 67.464 34.0556 66.7967 34.373 66.218C34.6903 65.63 35.1196 65.168 35.661 64.832C36.2116 64.496 36.8276 64.328 37.509 64.328C38.0503 64.328 38.531 64.4307 38.951 64.636C39.3803 64.832 39.7443 65.1027 40.043 65.448C40.3416 65.784 40.5703 66.1667 40.729 66.596C40.8876 67.016 40.967 67.45 40.967 67.898C40.967 67.9913 40.9623 68.0987 40.953 68.22C40.9436 68.332 40.9296 68.4487 40.911 68.57H34.569V67.59H40.309L39.805 68.01C39.889 67.4967 39.8283 67.0393 39.623 66.638C39.427 66.2273 39.1423 65.9053 38.769 65.672C38.3956 65.4293 37.9756 65.308 37.509 65.308C37.0423 65.308 36.6083 65.4293 36.207 65.672C35.815 65.9147 35.507 66.2553 35.283 66.694C35.059 67.1233 34.9703 67.6367 35.017 68.234C34.9703 68.8313 35.0636 69.354 35.297 69.802C35.5396 70.2407 35.8663 70.5813 36.277 70.824C36.697 71.0667 37.145 71.188 37.621 71.188C38.1716 71.188 38.6336 71.0573 39.007 70.796C39.3803 70.5347 39.6836 70.208 39.917 69.816L40.813 70.292C40.6636 70.628 40.435 70.9407 40.127 71.23C39.819 71.51 39.4503 71.7387 39.021 71.916C38.601 72.084 38.1343 72.168 37.621 72.168ZM46.2062 72.168C45.5062 72.168 44.8762 72 44.3162 71.664C43.7562 71.3187 43.3129 70.852 42.9862 70.264C42.6689 69.6667 42.5102 68.9947 42.5102 68.248C42.5102 67.492 42.6689 66.82 42.9862 66.232C43.3129 65.644 43.7516 65.182 44.3022 64.846C44.8622 64.5007 45.4969 64.328 46.2062 64.328C46.8502 64.328 47.4242 64.468 47.9282 64.748C48.4322 65.028 48.8289 65.406 49.1182 65.882L48.9502 66.176V61.402H50.0002V72H48.9502V70.32L49.1182 70.474C48.8569 71.0153 48.4649 71.4353 47.9422 71.734C47.4289 72.0233 46.8502 72.168 46.2062 72.168ZM46.2622 71.118C46.7662 71.118 47.2189 70.992 47.6202 70.74C48.0309 70.488 48.3529 70.1473 48.5862 69.718C48.8289 69.2793 48.9502 68.7893 48.9502 68.248C48.9502 67.7067 48.8289 67.2213 48.5862 66.792C48.3529 66.3533 48.0309 66.008 47.6202 65.756C47.2189 65.504 46.7662 65.378 46.2622 65.378C45.7676 65.378 45.3196 65.504 44.9182 65.756C44.5169 66.008 44.1996 66.3487 43.9662 66.778C43.7422 67.2073 43.6302 67.6973 43.6302 68.248C43.6302 68.7893 43.7422 69.2793 43.9662 69.718C44.1996 70.1473 44.5122 70.488 44.9042 70.74C45.3056 70.992 45.7582 71.118 46.2622 71.118ZM54.689 72V61.57H58.119C59.155 61.57 60.0557 61.7847 60.821 62.214C61.5864 62.634 62.179 63.236 62.599 64.02C63.019 64.7947 63.229 65.714 63.229 66.778C63.229 67.8327 63.019 68.752 62.599 69.536C62.179 70.32 61.5864 70.9267 60.821 71.356C60.0557 71.7853 59.155 72 58.119 72H54.689ZM55.809 70.95H58.119C58.9217 70.95 59.617 70.782 60.205 70.446C60.793 70.1007 61.2457 69.6153 61.563 68.99C61.8897 68.3647 62.053 67.6273 62.053 66.778C62.053 65.9287 61.8897 65.196 61.563 64.58C61.2364 63.9547 60.779 63.474 60.191 63.138C59.603 62.7927 58.9124 62.62 58.119 62.62H55.809V70.95ZM68.4397 72.168C67.7303 72.168 67.0863 72 66.5077 71.664C65.929 71.3187 65.467 70.852 65.1217 70.264C64.7857 69.6667 64.6177 68.99 64.6177 68.234C64.6177 67.4873 64.7857 66.82 65.1217 66.232C65.4577 65.644 65.9103 65.182 66.4797 64.846C67.0583 64.5007 67.7117 64.328 68.4397 64.328C69.1677 64.328 69.8163 64.496 70.3857 64.832C70.9643 65.168 71.417 65.63 71.7437 66.218C72.0797 66.806 72.2477 67.478 72.2477 68.234C72.2477 68.9993 72.075 69.6807 71.7297 70.278C71.3843 70.866 70.9223 71.328 70.3437 71.664C69.7743 72 69.1397 72.168 68.4397 72.168ZM68.4397 71.118C68.9437 71.118 69.3963 70.992 69.7977 70.74C70.2083 70.488 70.5303 70.1427 70.7637 69.704C71.0063 69.2653 71.1277 68.7753 71.1277 68.234C71.1277 67.6927 71.0063 67.2073 70.7637 66.778C70.5303 66.3487 70.2083 66.008 69.7977 65.756C69.3963 65.504 68.9437 65.378 68.4397 65.378C67.9357 65.378 67.4783 65.504 67.0677 65.756C66.6663 66.008 66.3443 66.3487 66.1017 66.778C65.859 67.2073 65.7377 67.6927 65.7377 68.234C65.7377 68.7753 65.859 69.2653 66.1017 69.704C66.3443 70.1427 66.6663 70.488 67.0677 70.74C67.4783 70.992 67.9357 71.118 68.4397 71.118ZM77.5295 72.168C76.7922 72.168 76.1435 71.9953 75.5835 71.65C75.0235 71.3047 74.5848 70.838 74.2675 70.25C73.9502 69.6527 73.7915 68.9807 73.7915 68.234C73.7915 67.4873 73.9502 66.82 74.2675 66.232C74.5848 65.644 75.0235 65.182 75.5835 64.846C76.1435 64.5007 76.7922 64.328 77.5295 64.328C77.9962 64.328 78.4348 64.412 78.8455 64.58C79.2562 64.748 79.6202 64.9767 79.9375 65.266C80.2548 65.546 80.4928 65.8727 80.6515 66.246L79.6995 66.736C79.5128 66.3347 79.2282 66.008 78.8455 65.756C78.4628 65.504 78.0242 65.378 77.5295 65.378C77.0348 65.378 76.5868 65.504 76.1855 65.756C75.7935 65.9987 75.4808 66.3393 75.2475 66.778C75.0235 67.2073 74.9115 67.6973 74.9115 68.248C74.9115 68.7893 75.0235 69.2793 75.2475 69.718C75.4808 70.1473 75.7935 70.488 76.1855 70.74C76.5868 70.992 77.0348 71.118 77.5295 71.118C78.0242 71.118 78.4582 70.992 78.8315 70.74C79.2142 70.488 79.5035 70.152 79.6995 69.732L80.6515 70.25C80.4928 70.614 80.2548 70.9407 79.9375 71.23C79.6202 71.5193 79.2562 71.748 78.8455 71.916C78.4348 72.084 77.9962 72.168 77.5295 72.168ZM85.364 72.084C84.692 72.084 84.174 71.888 83.81 71.496C83.446 71.104 83.264 70.544 83.264 69.816V65.546H81.878V64.496H82.228C82.5453 64.496 82.7973 64.3933 82.984 64.188C83.1707 63.9733 83.264 63.7073 83.264 63.39V62.76H84.314V64.496H85.966V65.546H84.314V69.816C84.314 70.068 84.3513 70.292 84.426 70.488C84.5007 70.6747 84.6267 70.824 84.804 70.936C84.9907 71.048 85.238 71.104 85.546 71.104C85.6207 71.104 85.7093 71.0993 85.812 71.09C85.9147 71.0807 86.0033 71.0713 86.078 71.062V72C85.966 72.028 85.84 72.0467 85.7 72.056C85.56 72.0747 85.448 72.084 85.364 72.084ZM91.1623 72.168C90.453 72.168 89.809 72 89.2303 71.664C88.6516 71.3187 88.1896 70.852 87.8443 70.264C87.5083 69.6667 87.3403 68.99 87.3403 68.234C87.3403 67.4873 87.5083 66.82 87.8443 66.232C88.1803 65.644 88.633 65.182 89.2023 64.846C89.781 64.5007 90.4343 64.328 91.1623 64.328C91.8903 64.328 92.539 64.496 93.1083 64.832C93.687 65.168 94.1396 65.63 94.4663 66.218C94.8023 66.806 94.9703 67.478 94.9703 68.234C94.9703 68.9993 94.7976 69.6807 94.4523 70.278C94.107 70.866 93.645 71.328 93.0663 71.664C92.497 72 91.8623 72.168 91.1623 72.168ZM91.1623 71.118C91.6663 71.118 92.119 70.992 92.5203 70.74C92.931 70.488 93.253 70.1427 93.4863 69.704C93.729 69.2653 93.8503 68.7753 93.8503 68.234C93.8503 67.6927 93.729 67.2073 93.4863 66.778C93.253 66.3487 92.931 66.008 92.5203 65.756C92.119 65.504 91.6663 65.378 91.1623 65.378C90.6583 65.378 90.201 65.504 89.7903 65.756C89.389 66.008 89.067 66.3487 88.8243 66.778C88.5816 67.2073 88.4603 67.6927 88.4603 68.234C88.4603 68.7753 88.5816 69.2653 88.8243 69.704C89.067 70.1427 89.389 70.488 89.7903 70.74C90.201 70.992 90.6583 71.118 91.1623 71.118ZM96.8221 72V64.496H97.8721V65.728L97.7321 65.546C97.9095 65.1913 98.1755 64.9113 98.5301 64.706C98.8941 64.5007 99.3328 64.398 99.8461 64.398H100.322V65.448H99.6641C99.1228 65.448 98.6888 65.616 98.3621 65.952C98.0355 66.288 97.8721 66.764 97.8721 67.38V72H96.8221ZM104.157 72.168C103.438 72.168 102.808 71.986 102.267 71.622C101.725 71.258 101.333 70.7633 101.091 70.138L101.973 69.718C102.187 70.1753 102.486 70.5393 102.869 70.81C103.261 71.0807 103.69 71.216 104.157 71.216C104.605 71.216 104.983 71.1087 105.291 70.894C105.599 70.67 105.753 70.3807 105.753 70.026C105.753 69.7647 105.678 69.5593 105.529 69.41C105.379 69.2513 105.207 69.13 105.011 69.046C104.815 68.962 104.642 68.9013 104.493 68.864L103.415 68.556C102.724 68.36 102.225 68.0847 101.917 67.73C101.609 67.3753 101.455 66.9647 101.455 66.498C101.455 66.0593 101.567 65.6767 101.791 65.35C102.015 65.0233 102.318 64.7713 102.701 64.594C103.083 64.4167 103.508 64.328 103.975 64.328C104.609 64.328 105.183 64.496 105.697 64.832C106.219 65.1587 106.588 65.616 106.803 66.204L105.907 66.624C105.72 66.204 105.449 65.8773 105.095 65.644C104.749 65.4013 104.362 65.28 103.933 65.28C103.513 65.28 103.177 65.3873 102.925 65.602C102.673 65.8167 102.547 66.0873 102.547 66.414C102.547 66.666 102.612 66.8667 102.743 67.016C102.873 67.1653 103.023 67.2773 103.191 67.352C103.368 67.4267 103.522 67.4827 103.653 67.52L104.899 67.884C105.505 68.0613 105.977 68.3367 106.313 68.71C106.658 69.0833 106.831 69.522 106.831 70.026C106.831 70.4367 106.714 70.8053 106.481 71.132C106.257 71.4587 105.944 71.7153 105.543 71.902C105.141 72.0793 104.679 72.168 104.157 72.168Z" fill="#627384"/>
<path d="M239.525 24.295C239.569 24.2065 239.637 24.1319 239.72 24.0798C239.804 24.0277 239.901 24.0001 240 24.0001C240.099 24.0001 240.196 24.0277 240.28 24.0798C240.363 24.1319 240.431 24.2065 240.475 24.295L242.785 28.974C242.937 29.282 243.162 29.5484 243.44 29.7505C243.717 29.9525 244.04 30.0841 244.38 30.134L249.546 30.89C249.644 30.9042 249.736 30.9455 249.811 31.0092C249.887 31.0729 249.943 31.1565 249.974 31.2506C250.005 31.3447 250.008 31.4454 249.985 31.5414C249.961 31.6375 249.911 31.725 249.84 31.794L246.104 35.432C245.858 35.6721 245.673 35.9685 245.567 36.2956C245.46 36.6228 245.435 36.9709 245.493 37.31L246.375 42.45C246.392 42.5478 246.382 42.6486 246.344 42.7407C246.307 42.8328 246.245 42.9126 246.165 42.971C246.084 43.0294 245.989 43.064 245.89 43.0709C245.791 43.0778 245.692 43.0567 245.604 43.01L240.986 40.582C240.682 40.4222 240.343 40.3388 239.999 40.3388C239.656 40.3388 239.317 40.4222 239.013 40.582L234.396 43.01C234.308 43.0564 234.209 43.0773 234.11 43.0703C234.011 43.0632 233.917 43.0286 233.836 42.9702C233.756 42.9119 233.694 42.8322 233.657 42.7402C233.619 42.6483 233.609 42.5477 233.626 42.45L234.507 37.311C234.565 36.9717 234.54 36.6234 234.434 36.296C234.327 35.9687 234.143 35.6722 233.896 35.432L230.16 31.795C230.089 31.726 230.038 31.6384 230.014 31.5421C229.99 31.4458 229.993 31.3446 230.024 31.2502C230.055 31.1558 230.111 31.0718 230.187 31.008C230.263 30.9441 230.356 30.9029 230.454 30.889L235.619 30.134C235.959 30.0845 236.282 29.9531 236.561 29.751C236.839 29.5489 237.064 29.2823 237.216 28.974L239.525 24.295Z" stroke="#1ABC9C" stroke-width="2" stroke-linecap="round" stroke-linejoin="round"/>
<path d="M271.34 46V41.08H261.08V37.66L271.1 23.65H275.36V37.66H278.63V41.08H275.36V46H271.34ZM264.08 39.13L263.36 37.66H271.34V26.86L272.39 27.19L264.08 39.13ZM283.319 46V41.8H287.279V46H283.319ZM300.447 46.36C298.827 46.36 297.417 46.06 296.217 45.46C295.037 44.84 294.117 44.01 293.457 42.97C292.817 41.93 292.497 40.79 292.497 39.55C292.497 38.09 292.887 36.86 293.667 35.86C294.447 34.84 295.577 34.09 297.057 33.61L296.817 34.6C295.757 34.26 294.917 33.6 294.297 32.62C293.697 31.64 293.397 30.56 293.397 29.38C293.397 28.2 293.697 27.15 294.297 26.23C294.897 25.31 295.727 24.59 296.787 24.07C297.847 23.55 299.067 23.29 300.447 23.29C301.807 23.29 303.007 23.55 304.047 24.07C305.107 24.59 305.937 25.31 306.537 26.23C307.157 27.15 307.467 28.2 307.467 29.38C307.467 30.58 307.157 31.67 306.537 32.65C305.937 33.61 305.107 34.27 304.047 34.63L303.837 33.58C305.317 34.1 306.447 34.87 307.227 35.89C308.007 36.89 308.397 38.12 308.397 39.58C308.397 40.82 308.067 41.96 307.407 43C306.767 44.02 305.847 44.84 304.647 45.46C303.467 46.06 302.067 46.36 300.447 46.36ZM300.447 42.91C301.227 42.91 301.907 42.77 302.487 42.49C303.067 42.19 303.517 41.78 303.837 41.26C304.157 40.72 304.317 40.11 304.317 39.43C304.317 38.73 304.157 38.13 303.837 37.63C303.517 37.11 303.067 36.71 302.487 36.43C301.907 36.13 301.227 35.98 300.447 35.98C299.667 35.98 298.987 36.13 298.407 36.43C297.847 36.71 297.407 37.11 297.087 37.63C296.767 38.13 296.607 38.73 296.607 39.43C296.607 40.11 296.767 40.72 297.087 41.26C297.407 41.78 297.847 42.19 298.407 42.49C298.987 42.77 299.667 42.91 300.447 42.91ZM300.447 32.53C301.027 32.53 301.537 32.4 301.977 32.14C302.417 31.88 302.757 31.54 302.997 31.12C303.257 30.68 303.387 30.18 303.387 29.62C303.387 29.06 303.257 28.57 302.997 28.15C302.757 27.71 302.417 27.37 301.977 27.13C301.537 26.87 301.027 26.74 300.447 26.74C299.867 26.74 299.347 26.87 298.887 27.13C298.447 27.37 298.097 27.71 297.837 28.15C297.597 28.57 297.477 29.06 297.477 29.62C297.477 30.18 297.597 30.68 297.837 31.12C298.097 31.54 298.447 31.88 298.887 32.14C299.347 32.4 299.867 32.53 300.447 32.53Z" fill="#1ABC9C"/>
<path d="M228.154 72L231.962 61.57H233.166L236.974 72H235.798L234.902 69.452H230.24L229.33 72H228.154ZM230.604 68.402H234.51L232.396 62.41H232.732L230.604 68.402ZM239.789 72L236.863 64.496H238.039L240.503 71.076H240.125L242.603 64.496H243.793L240.839 72H239.789ZM248.299 72.168C247.599 72.168 246.964 72 246.395 71.664C245.835 71.3187 245.391 70.8473 245.065 70.25C244.738 69.6527 244.575 68.976 244.575 68.22C244.575 67.464 244.733 66.7967 245.051 66.218C245.368 65.63 245.797 65.168 246.339 64.832C246.889 64.496 247.505 64.328 248.187 64.328C248.728 64.328 249.209 64.4307 249.629 64.636C250.058 64.832 250.422 65.1027 250.721 65.448C251.019 65.784 251.248 66.1667 251.407 66.596C251.565 67.016 251.645 67.45 251.645 67.898C251.645 67.9913 251.64 68.0987 251.631 68.22C251.621 68.332 251.607 68.4487 251.589 68.57H245.247V67.59H250.987L250.483 68.01C250.567 67.4967 250.506 67.0393 250.301 66.638C250.105 66.2273 249.82 65.9053 249.447 65.672C249.073 65.4293 248.653 65.308 248.187 65.308C247.72 65.308 247.286 65.4293 246.885 65.672C246.493 65.9147 246.185 66.2553 245.961 66.694C245.737 67.1233 245.648 67.6367 245.695 68.234C245.648 68.8313 245.741 69.354 245.975 69.802C246.217 70.2407 246.544 70.5813 246.955 70.824C247.375 71.0667 247.823 71.188 248.299 71.188C248.849 71.188 249.311 71.0573 249.685 70.796C250.058 70.5347 250.361 70.208 250.595 69.816L251.491 70.292C251.341 70.628 251.113 70.9407 250.805 71.23C250.497 71.51 250.128 71.7387 249.699 71.916C249.279 72.084 248.812 72.168 248.299 72.168ZM253.496 72V64.496H254.546V65.728L254.406 65.546C254.583 65.1913 254.849 64.9113 255.204 64.706C255.568 64.5007 256.007 64.398 256.52 64.398H256.996V65.448H256.338C255.797 65.448 255.363 65.616 255.036 65.952C254.709 66.288 254.546 66.764 254.546 67.38V72H253.496ZM260.396 72.168C259.92 72.168 259.496 72.0793 259.122 71.902C258.749 71.7153 258.455 71.4633 258.24 71.146C258.026 70.8287 257.918 70.4647 257.918 70.054C257.918 69.662 258.002 69.3073 258.17 68.99C258.338 68.6633 258.6 68.388 258.954 68.164C259.309 67.94 259.762 67.7813 260.312 67.688L263.252 67.198V68.15L260.564 68.598C260.023 68.6913 259.631 68.864 259.388 69.116C259.155 69.368 259.038 69.6667 259.038 70.012C259.038 70.348 259.169 70.6327 259.43 70.866C259.701 71.0993 260.046 71.216 260.466 71.216C260.98 71.216 261.428 71.1087 261.81 70.894C262.193 70.67 262.492 70.3713 262.706 69.998C262.921 69.6247 263.028 69.2093 263.028 68.752V66.848C263.028 66.4 262.865 66.036 262.538 65.756C262.212 65.476 261.787 65.336 261.264 65.336C260.807 65.336 260.406 65.4527 260.06 65.686C259.715 65.91 259.458 66.204 259.29 66.568L258.338 66.05C258.478 65.7327 258.698 65.4433 258.996 65.182C259.304 64.9207 259.654 64.7153 260.046 64.566C260.438 64.4073 260.844 64.328 261.264 64.328C261.815 64.328 262.3 64.4353 262.72 64.65C263.15 64.8647 263.481 65.1633 263.714 65.546C263.957 65.9193 264.078 66.3533 264.078 66.848V72H263.028V70.502L263.182 70.656C263.052 70.936 262.846 71.1927 262.566 71.426C262.296 71.65 261.974 71.832 261.6 71.972C261.236 72.1027 260.835 72.168 260.396 72.168ZM269.794 75.08C269.281 75.08 268.805 75.0007 268.366 74.842C267.937 74.6833 267.563 74.464 267.246 74.184C266.938 73.9133 266.7 73.596 266.532 73.232L267.498 72.714C267.647 73.0687 267.913 73.3767 268.296 73.638C268.679 73.8993 269.169 74.03 269.766 74.03C270.223 74.03 270.643 73.9413 271.026 73.764C271.409 73.5867 271.717 73.3253 271.95 72.98C272.183 72.6347 272.3 72.21 272.3 71.706V70.04L272.468 70.194C272.207 70.7353 271.819 71.1553 271.306 71.454C270.793 71.7433 270.233 71.888 269.626 71.888C268.926 71.888 268.296 71.72 267.736 71.384C267.176 71.048 266.733 70.5953 266.406 70.026C266.089 69.4473 265.93 68.808 265.93 68.108C265.93 67.3987 266.089 66.7593 266.406 66.19C266.733 65.6207 267.171 65.168 267.722 64.832C268.282 64.496 268.917 64.328 269.626 64.328C270.233 64.328 270.783 64.468 271.278 64.748C271.782 65.028 272.179 65.406 272.468 65.882L272.3 66.176V64.496H273.35V71.706C273.35 72.35 273.196 72.924 272.888 73.428C272.589 73.9413 272.169 74.3427 271.628 74.632C271.096 74.9307 270.485 75.08 269.794 75.08ZM269.682 70.838C270.167 70.838 270.606 70.7167 270.998 70.474C271.39 70.222 271.703 69.8907 271.936 69.48C272.179 69.06 272.3 68.6027 272.3 68.108C272.3 67.6133 272.179 67.1607 271.936 66.75C271.703 66.33 271.39 65.9987 270.998 65.756C270.606 65.504 270.167 65.378 269.682 65.378C269.187 65.378 268.739 65.504 268.338 65.756C267.937 65.9987 267.619 66.3253 267.386 66.736C267.162 67.1467 267.05 67.604 267.05 68.108C267.05 68.6027 267.162 69.06 267.386 69.48C267.619 69.8907 267.932 70.222 268.324 70.474C268.725 70.7167 269.178 70.838 269.682 70.838ZM278.924 72.168C278.224 72.168 277.589 72 277.02 71.664C276.46 71.3187 276.016 70.8473 275.69 70.25C275.363 69.6527 275.2 68.976 275.2 68.22C275.2 67.464 275.358 66.7967 275.676 66.218C275.993 65.63 276.422 65.168 276.964 64.832C277.514 64.496 278.13 64.328 278.812 64.328C279.353 64.328 279.834 64.4307 280.254 64.636C280.683 64.832 281.047 65.1027 281.346 65.448C281.644 65.784 281.873 66.1667 282.032 66.596C282.19 67.016 282.27 67.45 282.27 67.898C282.27 67.9913 282.265 68.0987 282.256 68.22C282.246 68.332 282.232 68.4487 282.214 68.57H275.872V67.59H281.612L281.108 68.01C281.192 67.4967 281.131 67.0393 280.926 66.638C280.73 66.2273 280.445 65.9053 280.072 65.672C279.698 65.4293 279.278 65.308 278.812 65.308C278.345 65.308 277.911 65.4293 277.51 65.672C277.118 65.9147 276.81 66.2553 276.586 66.694C276.362 67.1233 276.273 67.6367 276.32 68.234C276.273 68.8313 276.366 69.354 276.6 69.802C276.842 70.2407 277.169 70.5813 277.58 70.824C278 71.0667 278.448 71.188 278.924 71.188C279.474 71.188 279.936 71.0573 280.31 70.796C280.683 70.5347 280.986 70.208 281.22 69.816L282.116 70.292C281.966 70.628 281.738 70.9407 281.43 71.23C281.122 71.51 280.753 71.7387 280.324 71.916C279.904 72.084 279.437 72.168 278.924 72.168ZM286.654 72V61.57H290.238C290.919 61.57 291.517 61.7053 292.03 61.976C292.543 62.2373 292.94 62.6107 293.22 63.096C293.509 63.572 293.654 64.1273 293.654 64.762C293.654 65.4993 293.458 66.1293 293.066 66.652C292.683 67.1747 292.161 67.5433 291.498 67.758L293.934 72H292.618L290.07 67.506L290.826 67.94H287.774V72H286.654ZM287.774 66.89H290.294C290.742 66.89 291.134 66.806 291.47 66.638C291.806 66.4607 292.067 66.2133 292.254 65.896C292.441 65.5693 292.534 65.1867 292.534 64.748C292.534 64.3093 292.441 63.9313 292.254 63.614C292.067 63.2967 291.806 63.054 291.47 62.886C291.134 62.7087 290.742 62.62 290.294 62.62H287.774V66.89ZM297.639 72.168C297.163 72.168 296.738 72.0793 296.365 71.902C295.991 71.7153 295.697 71.4633 295.483 71.146C295.268 70.8287 295.161 70.4647 295.161 70.054C295.161 69.662 295.245 69.3073 295.413 68.99C295.581 68.6633 295.842 68.388 296.197 68.164C296.551 67.94 297.004 67.7813 297.555 67.688L300.495 67.198V68.15L297.807 68.598C297.265 68.6913 296.873 68.864 296.631 69.116C296.397 69.368 296.281 69.6667 296.281 70.012C296.281 70.348 296.411 70.6327 296.673 70.866C296.943 71.0993 297.289 71.216 297.709 71.216C298.222 71.216 298.67 71.1087 299.053 70.894C299.435 70.67 299.734 70.3713 299.949 69.998C300.163 69.6247 300.271 69.2093 300.271 68.752V66.848C300.271 66.4 300.107 66.036 299.781 65.756C299.454 65.476 299.029 65.336 298.507 65.336C298.049 65.336 297.648 65.4527 297.303 65.686C296.957 65.91 296.701 66.204 296.533 66.568L295.581 66.05C295.721 65.7327 295.94 65.4433 296.239 65.182C296.547 64.9207 296.897 64.7153 297.289 64.566C297.681 64.4073 298.087 64.328 298.507 64.328C299.057 64.328 299.543 64.4353 299.963 64.65C300.392 64.8647 300.723 65.1633 300.957 65.546C301.199 65.9193 301.321 66.3533 301.321 66.848V72H300.271V70.502L300.425 70.656C300.294 70.936 300.089 71.1927 299.809 71.426C299.538 71.65 299.216 71.832 298.843 71.972C298.479 72.1027 298.077 72.168 297.639 72.168ZM306.214 72.084C305.542 72.084 305.024 71.888 304.66 71.496C304.296 71.104 304.114 70.544 304.114 69.816V65.546H302.728V64.496H303.078C303.395 64.496 303.647 64.3933 303.834 64.188C304.02 63.9733 304.114 63.7073 304.114 63.39V62.76H305.164V64.496H306.816V65.546H305.164V69.816C305.164 70.068 305.201 70.292 305.276 70.488C305.35 70.6747 305.476 70.824 305.654 70.936C305.84 71.048 306.088 71.104 306.396 71.104C306.47 71.104 306.559 71.0993 306.662 71.09C306.764 71.0807 306.853 71.0713 306.928 71.062V72C306.816 72.028 306.69 72.0467 306.55 72.056C306.41 72.0747 306.298 72.084 306.214 72.084ZM308.771 72V64.496H309.821V72H308.771ZM308.771 63.11V61.57H309.821V63.11H308.771ZM311.971 72V64.496H313.021V65.952L312.783 65.896C312.969 65.4107 313.273 65.028 313.693 64.748C314.122 64.468 314.617 64.328 315.177 64.328C315.709 64.328 316.185 64.4493 316.605 64.692C317.034 64.9347 317.37 65.2707 317.613 65.7C317.865 66.12 317.991 66.596 317.991 67.128V72H316.941V67.534C316.941 67.0767 316.857 66.6893 316.689 66.372C316.53 66.0547 316.301 65.812 316.003 65.644C315.713 65.4667 315.377 65.378 314.995 65.378C314.612 65.378 314.271 65.4667 313.973 65.644C313.674 65.812 313.441 66.0593 313.273 66.386C313.105 66.7033 313.021 67.086 313.021 67.534V72H311.971ZM323.552 75.08C323.039 75.08 322.563 75.0007 322.124 74.842C321.695 74.6833 321.321 74.464 321.004 74.184C320.696 73.9133 320.458 73.596 320.29 73.232L321.256 72.714C321.405 73.0687 321.671 73.3767 322.054 73.638C322.437 73.8993 322.927 74.03 323.524 74.03C323.981 74.03 324.401 73.9413 324.784 73.764C325.167 73.5867 325.475 73.3253 325.708 72.98C325.941 72.6347 326.058 72.21 326.058 71.706V70.04L326.226 70.194C325.965 70.7353 325.577 71.1553 325.064 71.454C324.551 71.7433 323.991 71.888 323.384 71.888C322.684 71.888 322.054 71.72 321.494 71.384C320.934 71.048 320.491 70.5953 320.164 70.026C319.847 69.4473 319.688 68.808 319.688 68.108C319.688 67.3987 319.847 66.7593 320.164 66.19C320.491 65.6207 320.929 65.168 321.48 64.832C322.04 64.496 322.675 64.328 323.384 64.328C323.991 64.328 324.541 64.468 325.036 64.748C325.54 65.028 325.937 65.406 326.226 65.882L326.058 66.176V64.496H327.108V71.706C327.108 72.35 326.954 72.924 326.646 73.428C326.347 73.9413 325.927 74.3427 325.386 74.632C324.854 74.9307 324.243 75.08 323.552 75.08ZM323.44 70.838C323.925 70.838 324.364 70.7167 324.756 70.474C325.148 70.222 325.461 69.8907 325.694 69.48C325.937 69.06 326.058 68.6027 326.058 68.108C326.058 67.6133 325.937 67.1607 325.694 66.75C325.461 66.33 325.148 65.9987 324.756 65.756C324.364 65.504 323.925 65.378 323.44 65.378C322.945 65.378 322.497 65.504 322.096 65.756C321.695 65.9987 321.377 66.3253 321.144 66.736C320.92 67.1467 320.808 67.604 320.808 68.108C320.808 68.6027 320.92 69.06 321.144 69.48C321.377 69.8907 321.69 70.222 322.082 70.474C322.483 70.7167 322.936 70.838 323.44 70.838Z" fill="#627384"/>
<path d="M468 44C473.523 44 478 39.5228 478 34C478 28.4772 473.523 24 468 24C462.477 24 458 28.4772 458 34C458 39.5228 462.477 44 468 44Z" stroke="#22C35D" stroke-width="2" stroke-linecap="round" stroke-linejoin="round"/>
<path d="M468 28V34L472 36" stroke="#22C35D" stroke-width="2" stroke-linecap="round" stroke-linejoin="round"/>
<path d="M493.19 46V27.13H488.87V23.65H497.27V46H493.19ZM509.01 46.36C507.83 46.36 506.7 46.14 505.62 45.7C504.56 45.26 503.64 44.64 502.86 43.84C502.1 43.02 501.58 42.05 501.3 40.93L504.84 39.67C505.18 40.69 505.73 41.45 506.49 41.95C507.25 42.43 508.09 42.67 509.01 42.67C509.77 42.67 510.44 42.51 511.02 42.19C511.62 41.85 512.08 41.39 512.4 40.81C512.72 40.21 512.88 39.52 512.88 38.74C512.88 37.96 512.71 37.28 512.37 36.7C512.05 36.12 511.6 35.67 511.02 35.35C510.44 35.01 509.77 34.84 509.01 34.84C508.23 34.84 507.52 35.01 506.88 35.35C506.26 35.69 505.81 36.18 505.53 36.82L502.2 36.07L503.97 23.65H516.15V27.1H505.59L507.12 25.33L505.86 34.69L504.69 33.73C505.25 32.91 505.93 32.31 506.73 31.93C507.55 31.55 508.54 31.36 509.7 31.36C511.18 31.36 512.46 31.68 513.54 32.32C514.64 32.96 515.49 33.83 516.09 34.93C516.69 36.03 516.99 37.3 516.99 38.74C516.99 40.18 516.64 41.48 515.94 42.64C515.24 43.8 514.29 44.71 513.09 45.37C511.89 46.03 510.53 46.36 509.01 46.36ZM525.719 46V29.68H529.409V33.46L528.989 32.83C529.289 31.65 529.889 30.77 530.789 30.19C531.689 29.61 532.749 29.32 533.969 29.32C535.309 29.32 536.489 29.67 537.509 30.37C538.529 31.07 539.189 31.99 539.489 33.13L538.379 33.22C538.879 31.92 539.629 30.95 540.629 30.31C541.629 29.65 542.779 29.32 544.079 29.32C545.239 29.32 546.269 29.58 547.169 30.1C548.089 30.62 548.809 31.35 549.329 32.29C549.849 33.21 550.109 34.28 550.109 35.5V46H546.179V36.43C546.179 35.71 546.049 35.09 545.789 34.57C545.529 34.05 545.169 33.65 544.709 33.37C544.249 33.07 543.689 32.92 543.029 32.92C542.409 32.92 541.859 33.07 541.379 33.37C540.899 33.65 540.529 34.05 540.269 34.57C540.009 35.09 539.879 35.71 539.879 36.43V46H535.949V36.43C535.949 35.71 535.819 35.09 535.559 34.57C535.299 34.05 534.929 33.65 534.449 33.37C533.989 33.07 533.439 32.92 532.799 32.92C532.179 32.92 531.629 33.07 531.149 33.37C530.669 33.65 530.299 34.05 530.039 34.57C529.779 35.09 529.649 35.71 529.649 36.43V46H525.719ZM553.434 46V29.68H557.364V46H553.434ZM553.434 27.85V23.65H557.364V27.85H553.434ZM560.992 46V29.68H564.682V32.89L564.382 32.32C564.762 31.34 565.382 30.6 566.242 30.1C567.122 29.58 568.142 29.32 569.302 29.32C570.502 29.32 571.562 29.58 572.482 30.1C573.422 30.62 574.152 31.35 574.672 32.29C575.192 33.21 575.452 34.28 575.452 35.5V46H571.522V36.43C571.522 35.71 571.382 35.09 571.102 34.57C570.822 34.05 570.432 33.65 569.932 33.37C569.452 33.07 568.882 32.92 568.222 32.92C567.582 32.92 567.012 33.07 566.512 33.37C566.012 33.65 565.622 34.05 565.342 34.57C565.062 35.09 564.922 35.71 564.922 36.43V46H560.992Z" fill="#22C35D"/>
<path d="M456.154 72L459.962 61.57H461.166L464.974 72H463.798L462.902 69.452H458.24L457.33 72H456.154ZM458.604 68.402H462.51L460.396 62.41H460.732L458.604 68.402ZM467.789 72L464.863 64.496H466.039L468.503 71.076H468.125L470.603 64.496H471.793L468.839 72H467.789ZM476.439 75.08C475.925 75.08 475.449 75.0007 475.011 74.842C474.581 74.6833 474.208 74.464 473.891 74.184C473.583 73.9133 473.345 73.596 473.177 73.232L474.143 72.714C474.292 73.0687 474.558 73.3767 474.941 73.638C475.323 73.8993 475.813 74.03 476.411 74.03C476.868 74.03 477.288 73.9413 477.671 73.764C478.053 73.5867 478.361 73.3253 478.595 72.98C478.828 72.6347 478.945 72.21 478.945 71.706V70.04L479.113 70.194C478.851 70.7353 478.464 71.1553 477.951 71.454C477.437 71.7433 476.877 71.888 476.271 71.888C475.571 71.888 474.941 71.72 474.381 71.384C473.821 71.048 473.377 70.5953 473.051 70.026C472.733 69.4473 472.575 68.808 472.575 68.108C472.575 67.3987 472.733 66.7593 473.051 66.19C473.377 65.6207 473.816 65.168 474.367 64.832C474.927 64.496 475.561 64.328 476.271 64.328C476.877 64.328 477.428 64.468 477.923 64.748C478.427 65.028 478.823 65.406 479.113 65.882L478.945 66.176V64.496H479.995V71.706C479.995 72.35 479.841 72.924 479.533 73.428C479.234 73.9413 478.814 74.3427 478.273 74.632C477.741 74.9307 477.129 75.08 476.439 75.08ZM476.327 70.838C476.812 70.838 477.251 70.7167 477.643 70.474C478.035 70.222 478.347 69.8907 478.581 69.48C478.823 69.06 478.945 68.6027 478.945 68.108C478.945 67.6133 478.823 67.1607 478.581 66.75C478.347 66.33 478.035 65.9987 477.643 65.756C477.251 65.504 476.812 65.378 476.327 65.378C475.832 65.378 475.384 65.504 474.983 65.756C474.581 65.9987 474.264 66.3253 474.031 66.736C473.807 67.1467 473.695 67.604 473.695 68.108C473.695 68.6027 473.807 69.06 474.031 69.48C474.264 69.8907 474.577 70.222 474.969 70.474C475.37 70.7167 475.823 70.838 476.327 70.838ZM482.516 72V70.46H483.636V72H482.516ZM488.691 72V61.57H492.275C492.956 61.57 493.554 61.7053 494.067 61.976C494.58 62.2373 494.977 62.6107 495.257 63.096C495.546 63.572 495.691 64.1273 495.691 64.762C495.691 65.4993 495.495 66.1293 495.103 66.652C494.72 67.1747 494.198 67.5433 493.535 67.758L495.971 72H494.655L492.107 67.506L492.863 67.94H489.811V72H488.691ZM489.811 66.89H492.331C492.779 66.89 493.171 66.806 493.507 66.638C493.843 66.4607 494.104 66.2133 494.291 65.896C494.478 65.5693 494.571 65.1867 494.571 64.748C494.571 64.3093 494.478 63.9313 494.291 63.614C494.104 63.2967 493.843 63.054 493.507 62.886C493.171 62.7087 492.779 62.62 492.331 62.62H489.811V66.89ZM500.498 72.168C499.798 72.168 499.163 72 498.594 71.664C498.034 71.3187 497.591 70.8473 497.264 70.25C496.937 69.6527 496.774 68.976 496.774 68.22C496.774 67.464 496.933 66.7967 497.25 66.218C497.567 65.63 497.997 65.168 498.538 64.832C499.089 64.496 499.705 64.328 500.386 64.328C500.927 64.328 501.408 64.4307 501.828 64.636C502.257 64.832 502.621 65.1027 502.92 65.448C503.219 65.784 503.447 66.1667 503.606 66.596C503.765 67.016 503.844 67.45 503.844 67.898C503.844 67.9913 503.839 68.0987 503.83 68.22C503.821 68.332 503.807 68.4487 503.788 68.57H497.446V67.59H503.186L502.682 68.01C502.766 67.4967 502.705 67.0393 502.5 66.638C502.304 66.2273 502.019 65.9053 501.646 65.672C501.273 65.4293 500.853 65.308 500.386 65.308C499.919 65.308 499.485 65.4293 499.084 65.672C498.692 65.9147 498.384 66.2553 498.16 66.694C497.936 67.1233 497.847 67.6367 497.894 68.234C497.847 68.8313 497.941 69.354 498.174 69.802C498.417 70.2407 498.743 70.5813 499.154 70.824C499.574 71.0667 500.022 71.188 500.498 71.188C501.049 71.188 501.511 71.0573 501.884 70.796C502.257 70.5347 502.561 70.208 502.794 69.816L503.69 70.292C503.541 70.628 503.312 70.9407 503.004 71.23C502.696 71.51 502.327 71.7387 501.898 71.916C501.478 72.084 501.011 72.168 500.498 72.168ZM508.299 72.168C507.581 72.168 506.951 71.986 506.409 71.622C505.868 71.258 505.476 70.7633 505.233 70.138L506.115 69.718C506.33 70.1753 506.629 70.5393 507.011 70.81C507.403 71.0807 507.833 71.216 508.299 71.216C508.747 71.216 509.125 71.1087 509.433 70.894C509.741 70.67 509.895 70.3807 509.895 70.026C509.895 69.7647 509.821 69.5593 509.671 69.41C509.522 69.2513 509.349 69.13 509.153 69.046C508.957 68.962 508.785 68.9013 508.635 68.864L507.557 68.556C506.867 68.36 506.367 68.0847 506.059 67.73C505.751 67.3753 505.597 66.9647 505.597 66.498C505.597 66.0593 505.709 65.6767 505.933 65.35C506.157 65.0233 506.461 64.7713 506.843 64.594C507.226 64.4167 507.651 64.328 508.117 64.328C508.752 64.328 509.326 64.496 509.839 64.832C510.362 65.1587 510.731 65.616 510.945 66.204L510.049 66.624C509.863 66.204 509.592 65.8773 509.237 65.644C508.892 65.4013 508.505 65.28 508.075 65.28C507.655 65.28 507.319 65.3873 507.067 65.602C506.815 65.8167 506.689 66.0873 506.689 66.414C506.689 66.666 506.755 66.8667 506.885 67.016C507.016 67.1653 507.165 67.2773 507.333 67.352C507.511 67.4267 507.665 67.4827 507.795 67.52L509.041 67.884C509.648 68.0613 510.119 68.3367 510.455 68.71C510.801 69.0833 510.973 69.522 510.973 70.026C510.973 70.4367 510.857 70.8053 510.623 71.132C510.399 71.4587 510.087 71.7153 509.685 71.902C509.284 72.0793 508.822 72.168 508.299 72.168ZM512.818 74.8V64.496H513.868V66.176L513.7 65.882C513.999 65.406 514.396 65.028 514.89 64.748C515.394 64.468 515.968 64.328 516.612 64.328C517.322 64.328 517.952 64.5007 518.502 64.846C519.062 65.182 519.501 65.644 519.818 66.232C520.145 66.82 520.308 67.492 520.308 68.248C520.308 68.9947 520.145 69.6667 519.818 70.264C519.501 70.852 519.062 71.3187 518.502 71.664C517.952 72 517.322 72.168 516.612 72.168C515.968 72.168 515.385 72.0233 514.862 71.734C514.349 71.4353 513.962 71.0153 513.7 70.474L513.868 70.32V74.8H512.818ZM516.556 71.118C517.06 71.118 517.508 70.992 517.9 70.74C518.302 70.488 518.614 70.1473 518.838 69.718C519.072 69.2793 519.188 68.7893 519.188 68.248C519.188 67.6973 519.072 67.2073 518.838 66.778C518.614 66.3487 518.302 66.008 517.9 65.756C517.508 65.504 517.06 65.378 516.556 65.378C516.052 65.378 515.595 65.504 515.184 65.756C514.783 66.008 514.461 66.3533 514.218 66.792C513.985 67.2213 513.868 67.7067 513.868 68.248C513.868 68.7893 513.985 69.2793 514.218 69.718C514.461 70.1473 514.783 70.488 515.184 70.74C515.595 70.992 516.052 71.118 516.556 71.118ZM525.67 72.168C524.961 72.168 524.317 72 523.738 71.664C523.159 71.3187 522.697 70.852 522.352 70.264C522.016 69.6667 521.848 68.99 521.848 68.234C521.848 67.4873 522.016 66.82 522.352 66.232C522.688 65.644 523.141 65.182 523.71 64.846C524.289 64.5007 524.942 64.328 525.67 64.328C526.398 64.328 527.047 64.496 527.616 64.832C528.195 65.168 528.647 65.63 528.974 66.218C529.31 66.806 529.478 67.478 529.478 68.234C529.478 68.9993 529.305 69.6807 528.96 70.278C528.615 70.866 528.153 71.328 527.574 71.664C527.005 72 526.37 72.168 525.67 72.168ZM525.67 71.118C526.174 71.118 526.627 70.992 527.028 70.74C527.439 70.488 527.761 70.1427 527.994 69.704C528.237 69.2653 528.358 68.7753 528.358 68.234C528.358 67.6927 528.237 67.2073 527.994 66.778C527.761 66.3487 527.439 66.008 527.028 65.756C526.627 65.504 526.174 65.378 525.67 65.378C525.166 65.378 524.709 65.504 524.298 65.756C523.897 66.008 523.575 66.3487 523.332 66.778C523.089 67.2073 522.968 67.6927 522.968 68.234C522.968 68.7753 523.089 69.2653 523.332 69.704C523.575 70.1427 523.897 70.488 524.298 70.74C524.709 70.992 525.166 71.118 525.67 71.118ZM531.33 72V64.496H532.38V65.952L532.142 65.896C532.329 65.4107 532.632 65.028 533.052 64.748C533.481 64.468 533.976 64.328 534.536 64.328C535.068 64.328 535.544 64.4493 535.964 64.692C536.393 64.9347 536.729 65.2707 536.972 65.7C537.224 66.12 537.35 66.596 537.35 67.128V72H536.3V67.534C536.3 67.0767 536.216 66.6893 536.048 66.372C535.889 66.0547 535.661 65.812 535.362 65.644C535.073 65.4667 534.737 65.378 534.354 65.378C533.971 65.378 533.631 65.4667 533.332 65.644C533.033 65.812 532.8 66.0593 532.632 66.386C532.464 66.7033 532.38 67.086 532.38 67.534V72H531.33ZM541.959 72.168C541.241 72.168 540.611 71.986 540.069 71.622C539.528 71.258 539.136 70.7633 538.893 70.138L539.775 69.718C539.99 70.1753 540.289 70.5393 540.671 70.81C541.063 71.0807 541.493 71.216 541.959 71.216C542.407 71.216 542.785 71.1087 543.093 70.894C543.401 70.67 543.555 70.3807 543.555 70.026C543.555 69.7647 543.481 69.5593 543.331 69.41C543.182 69.2513 543.009 69.13 542.813 69.046C542.617 68.962 542.445 68.9013 542.295 68.864L541.217 68.556C540.527 68.36 540.027 68.0847 539.719 67.73C539.411 67.3753 539.257 66.9647 539.257 66.498C539.257 66.0593 539.369 65.6767 539.593 65.35C539.817 65.0233 540.121 64.7713 540.503 64.594C540.886 64.4167 541.311 64.328 541.777 64.328C542.412 64.328 542.986 64.496 543.499 64.832C544.022 65.1587 544.391 65.616 544.605 66.204L543.709 66.624C543.523 66.204 543.252 65.8773 542.897 65.644C542.552 65.4013 542.165 65.28 541.735 65.28C541.315 65.28 540.979 65.3873 540.727 65.602C540.475 65.8167 540.349 66.0873 540.349 66.414C540.349 66.666 540.415 66.8667 540.545 67.016C540.676 67.1653 540.825 67.2773 540.993 67.352C541.171 67.4267 541.325 67.4827 541.455 67.52L542.701 67.884C543.308 68.0613 543.779 68.3367 544.115 68.71C544.461 69.0833 544.633 69.522 544.633 70.026C544.633 70.4367 544.517 70.8053 544.283 71.132C544.059 71.4587 543.747 71.7153 543.345 71.902C542.944 72.0793 542.482 72.168 541.959 72.168ZM549.894 72.168C549.194 72.168 548.56 72 547.99 71.664C547.43 71.3187 546.987 70.8473 546.66 70.25C546.334 69.6527 546.17 68.976 546.17 68.22C546.17 67.464 546.329 66.7967 546.646 66.218C546.964 65.63 547.393 65.168 547.934 64.832C548.485 64.496 549.101 64.328 549.782 64.328C550.324 64.328 550.804 64.4307 551.224 64.636C551.654 64.832 552.018 65.1027 552.316 65.448C552.615 65.784 552.844 66.1667 553.002 66.596C553.161 67.016 553.24 67.45 553.24 67.898C553.24 67.9913 553.236 68.0987 553.226 68.22C553.217 68.332 553.203 68.4487 553.184 68.57H546.842V67.59H552.582L552.078 68.01C552.162 67.4967 552.102 67.0393 551.896 66.638C551.7 66.2273 551.416 65.9053 551.042 65.672C550.669 65.4293 550.249 65.308 549.782 65.308C549.316 65.308 548.882 65.4293 548.48 65.672C548.088 65.9147 547.78 66.2553 547.556 66.694C547.332 67.1233 547.244 67.6367 547.29 68.234C547.244 68.8313 547.337 69.354 547.57 69.802C547.813 70.2407 548.14 70.5813 548.55 70.824C548.97 71.0667 549.418 71.188 549.894 71.188C550.445 71.188 550.907 71.0573 551.28 70.796C551.654 70.5347 551.957 70.208 552.19 69.816L553.086 70.292C552.937 70.628 552.708 70.9407 552.4 71.23C552.092 71.51 551.724 71.7387 551.294 71.916C550.874 72.084 550.408 72.168 549.894 72.168Z" fill="#627384"/>
</svg>
