<svg width="692" height="114" viewBox="0 0 692 114" fill="none" xmlns="http://www.w3.org/2000/svg">
<g filter="url(#filter0_d_1_406)">
<rect x="16" y="12" width="660" height="81.6" rx="16" fill="white"/>
<rect x="16.5" y="12.5" width="659" height="80.6" rx="15.5" stroke="#E0E6EB"/>
<rect x="33.3" y="29.3" width="146.167" height="47" rx="11.5" fill="#F3F5F7" fill-opacity="0.5"/>
<rect x="33.3" y="29.3" width="146.167" height="47" rx="11.5" stroke="#E0E6EB"/>
<path d="M61.4667 51.1333C61.4667 55.2942 56.8508 59.6275 55.3008 60.9658C55.1564 61.0744 54.9807 61.1331 54.8 61.1331C54.6193 61.1331 54.4436 61.0744 54.2992 60.9658C52.7492 59.6275 48.1333 55.2942 48.1333 51.1333C48.1333 49.3652 48.8357 47.6695 50.086 46.4193C51.3362 45.1691 53.0319 44.4667 54.8 44.4667C56.5681 44.4667 58.2638 45.1691 59.514 46.4193C60.7643 47.6695 61.4667 49.3652 61.4667 51.1333Z" stroke="#627384" stroke-width="1.66667" stroke-linecap="round" stroke-linejoin="round"/>
<path d="M54.8 53.6333C56.1807 53.6333 57.3 52.514 57.3 51.1333C57.3 49.7526 56.1807 48.6333 54.8 48.6333C53.4193 48.6333 52.3 49.7526 52.3 51.1333C52.3 52.514 53.4193 53.6333 54.8 53.6333Z" stroke="#627384" stroke-width="1.66667" stroke-linecap="round" stroke-linejoin="round"/>
<rect x="192.467" y="29.3" width="146.167" height="47" rx="11.5" fill="#F3F5F7" fill-opacity="0.5"/>
<rect x="192.467" y="29.3" width="146.167" height="47" rx="11.5" stroke="#E0E6EB"/>
<path d="M213.133 44.4667V46.1333" stroke="#627384" stroke-width="1.66667" stroke-linecap="round" stroke-linejoin="round"/>
<path d="M208.133 44.4667V46.1333" stroke="#627384" stroke-width="1.66667" stroke-linecap="round" stroke-linejoin="round"/>
<path d="M208.133 45.3H207.3C206.858 45.3 206.434 45.4756 206.121 45.7882C205.809 46.1007 205.633 46.5246 205.633 46.9667V50.3C205.633 51.6261 206.16 52.8979 207.098 53.8355C208.035 54.7732 209.307 55.3 210.633 55.3C211.959 55.3 213.231 54.7732 214.169 53.8355C215.107 52.8979 215.633 51.6261 215.633 50.3V46.9667C215.633 46.5246 215.458 46.1007 215.145 45.7882C214.833 45.4756 214.409 45.3 213.967 45.3H213.133" stroke="#627384" stroke-width="1.66667" stroke-linecap="round" stroke-linejoin="round"/>
<path d="M210.633 55.3C210.633 56.6261 211.16 57.8979 212.098 58.8355C213.035 59.7732 214.307 60.3 215.633 60.3C216.959 60.3 218.231 59.7732 219.169 58.8355C220.107 57.8979 220.633 56.6261 220.633 55.3V52.8" stroke="#627384" stroke-width="1.66667" stroke-linecap="round" stroke-linejoin="round"/>
<path d="M220.633 52.8C221.554 52.8 222.3 52.0538 222.3 51.1333C222.3 50.2129 221.554 49.4667 220.633 49.4667C219.713 49.4667 218.967 50.2129 218.967 51.1333C218.967 52.0538 219.713 52.8 220.633 52.8Z" stroke="#627384" stroke-width="1.66667" stroke-linecap="round" stroke-linejoin="round"/>
<rect x="351.633" y="29.3" width="146.167" height="47" rx="11.5" fill="#F3F5F7" fill-opacity="0.5"/>
<rect x="351.633" y="29.3" width="146.167" height="47" rx="11.5" stroke="#E0E6EB"/>
<path d="M372.3 58.6333C375.982 58.6333 378.967 55.6486 378.967 51.9667C378.967 48.2848 375.982 45.3 372.3 45.3C368.618 45.3 365.633 48.2848 365.633 51.9667C365.633 55.6486 368.618 58.6333 372.3 58.6333Z" stroke="#627384" stroke-width="1.66667" stroke-linecap="round" stroke-linejoin="round"/>
<path d="M380.633 60.3L377.05 56.7167" stroke="#627384" stroke-width="1.66667" stroke-linecap="round" stroke-linejoin="round"/>
<rect x="510.3" y="28.8" width="148.9" height="48" rx="12" fill="#0DA2E7"/>
<g clip-path="url(#clip0_1_406)">
<path d="M552.083 57.0667C555.029 57.0667 557.417 54.6789 557.417 51.7333C557.417 48.7878 555.029 46.4 552.083 46.4C549.138 46.4 546.75 48.7878 546.75 51.7333C546.75 54.6789 549.138 57.0667 552.083 57.0667Z" stroke="white" stroke-width="1.33333" stroke-linecap="round" stroke-linejoin="round"/>
<path d="M558.75 58.4L555.883 55.5333" stroke="white" stroke-width="1.33333" stroke-linecap="round" stroke-linejoin="round"/>
</g>
<path d="M581.59 58.568C580.928 58.568 580.312 58.4467 579.742 58.204C579.182 57.9613 578.697 57.6253 578.286 57.196C577.885 56.7573 577.591 56.2487 577.404 55.67L578.986 54.984C579.238 55.5813 579.602 56.0527 580.078 56.398C580.554 56.734 581.091 56.902 581.688 56.902C582.024 56.902 582.314 56.8507 582.556 56.748C582.808 56.636 583 56.4867 583.13 56.3C583.27 56.1133 583.34 55.8893 583.34 55.628C583.34 55.32 583.247 55.068 583.06 54.872C582.883 54.6667 582.612 54.508 582.248 54.396L580.246 53.752C579.434 53.5 578.823 53.122 578.412 52.618C578.002 52.114 577.796 51.5213 577.796 50.84C577.796 50.2427 577.941 49.7153 578.23 49.258C578.529 48.8007 578.94 48.446 579.462 48.194C579.994 47.9327 580.601 47.802 581.282 47.802C581.908 47.802 582.482 47.914 583.004 48.138C583.527 48.3527 583.975 48.656 584.348 49.048C584.731 49.4307 585.016 49.8833 585.202 50.406L583.634 51.106C583.429 50.5833 583.121 50.182 582.71 49.902C582.3 49.6127 581.824 49.468 581.282 49.468C580.965 49.468 580.685 49.524 580.442 49.636C580.2 49.7387 580.008 49.888 579.868 50.084C579.738 50.2707 579.672 50.4947 579.672 50.756C579.672 51.0453 579.766 51.302 579.952 51.526C580.139 51.7407 580.424 51.9087 580.806 52.03L582.724 52.632C583.555 52.9027 584.176 53.276 584.586 53.752C585.006 54.228 585.216 54.816 585.216 55.516C585.216 56.1133 585.062 56.6407 584.754 57.098C584.446 57.5553 584.022 57.9147 583.48 58.176C582.939 58.4373 582.309 58.568 581.59 58.568ZM590.389 58.568C589.605 58.568 588.919 58.3907 588.331 58.036C587.743 57.6813 587.286 57.2007 586.959 56.594C586.632 55.9873 586.469 55.3153 586.469 54.578C586.469 53.8127 586.632 53.136 586.959 52.548C587.295 51.9507 587.748 51.4793 588.317 51.134C588.896 50.7887 589.54 50.616 590.249 50.616C590.846 50.616 591.369 50.714 591.817 50.91C592.274 51.106 592.662 51.3767 592.979 51.722C593.296 52.0673 593.539 52.464 593.707 52.912C593.875 53.3507 593.959 53.8267 593.959 54.34C593.959 54.4707 593.95 54.606 593.931 54.746C593.922 54.886 593.898 55.0073 593.861 55.11H587.981V53.71H592.825L591.957 54.368C592.041 53.9387 592.018 53.556 591.887 53.22C591.766 52.884 591.56 52.618 591.271 52.422C590.991 52.226 590.65 52.128 590.249 52.128C589.866 52.128 589.526 52.226 589.227 52.422C588.928 52.6087 588.7 52.8887 588.541 53.262C588.392 53.626 588.336 54.0693 588.373 54.592C588.336 55.0587 588.396 55.474 588.555 55.838C588.723 56.1927 588.966 56.468 589.283 56.664C589.61 56.86 589.983 56.958 590.403 56.958C590.823 56.958 591.178 56.8693 591.467 56.692C591.766 56.5147 591.999 56.2767 592.167 55.978L593.651 56.706C593.502 57.07 593.268 57.392 592.951 57.672C592.634 57.952 592.256 58.1713 591.817 58.33C591.388 58.4887 590.912 58.568 590.389 58.568ZM597.632 58.568C597.1 58.568 596.638 58.4793 596.246 58.302C595.854 58.1247 595.55 57.8727 595.336 57.546C595.121 57.21 595.014 56.8227 595.014 56.384C595.014 55.964 595.107 55.5907 595.294 55.264C595.48 54.928 595.77 54.648 596.162 54.424C596.554 54.2 597.048 54.0413 597.646 53.948L600.138 53.542V54.942L597.996 55.306C597.632 55.3713 597.361 55.488 597.184 55.656C597.006 55.824 596.918 56.0433 596.918 56.314C596.918 56.5753 597.016 56.7853 597.212 56.944C597.417 57.0933 597.669 57.168 597.968 57.168C598.35 57.168 598.686 57.0887 598.976 56.93C599.274 56.762 599.503 56.5333 599.662 56.244C599.83 55.9547 599.914 55.6373 599.914 55.292V53.332C599.914 53.0053 599.783 52.7347 599.522 52.52C599.27 52.296 598.934 52.184 598.514 52.184C598.122 52.184 597.772 52.2913 597.464 52.506C597.165 52.7113 596.946 52.9867 596.806 53.332L595.308 52.604C595.457 52.2027 595.69 51.8573 596.008 51.568C596.334 51.2693 596.717 51.036 597.156 50.868C597.594 50.7 598.07 50.616 598.584 50.616C599.209 50.616 599.76 50.7327 600.236 50.966C600.712 51.19 601.08 51.5073 601.342 51.918C601.612 52.3193 601.748 52.7907 601.748 53.332V58.4H600.012V57.098L600.404 57.07C600.208 57.3967 599.974 57.672 599.704 57.896C599.433 58.1107 599.125 58.2787 598.78 58.4C598.434 58.512 598.052 58.568 597.632 58.568ZM603.443 58.4V50.784H605.165V52.478L605.025 52.226C605.202 51.6567 605.478 51.26 605.851 51.036C606.234 50.812 606.691 50.7 607.223 50.7H607.671V52.324H607.013C606.49 52.324 606.07 52.4873 605.753 52.814C605.436 53.1313 605.277 53.5793 605.277 54.158V58.4H603.443ZM612.347 58.568C611.591 58.568 610.91 58.3953 610.303 58.05C609.706 57.6953 609.235 57.2193 608.889 56.622C608.544 56.0153 608.371 55.334 608.371 54.578C608.371 53.822 608.544 53.1453 608.889 52.548C609.235 51.9507 609.706 51.4793 610.303 51.134C610.91 50.7887 611.591 50.616 612.347 50.616C612.889 50.616 613.393 50.714 613.859 50.91C614.326 51.0967 614.727 51.358 615.063 51.694C615.409 52.0207 615.656 52.4127 615.805 52.87L614.195 53.57C614.055 53.1873 613.817 52.8793 613.481 52.646C613.155 52.4127 612.777 52.296 612.347 52.296C611.946 52.296 611.587 52.394 611.269 52.59C610.961 52.786 610.719 53.0567 610.541 53.402C610.364 53.7473 610.275 54.144 610.275 54.592C610.275 55.04 610.364 55.4367 610.541 55.782C610.719 56.1273 610.961 56.398 611.269 56.594C611.587 56.79 611.946 56.888 612.347 56.888C612.786 56.888 613.169 56.7713 613.495 56.538C613.822 56.3047 614.055 55.992 614.195 55.6L615.805 56.328C615.656 56.7573 615.413 57.1447 615.077 57.49C614.741 57.826 614.34 58.092 613.873 58.288C613.407 58.4747 612.898 58.568 612.347 58.568ZM617.197 58.4V47.802H619.031V52.282L618.779 52.016C618.956 51.5587 619.245 51.2133 619.647 50.98C620.057 50.7373 620.533 50.616 621.075 50.616C621.635 50.616 622.129 50.7373 622.559 50.98C622.997 51.2227 623.338 51.5633 623.581 52.002C623.823 52.4313 623.945 52.9307 623.945 53.5V58.4H622.111V53.934C622.111 53.598 622.045 53.3087 621.915 53.066C621.784 52.8233 621.602 52.6367 621.369 52.506C621.145 52.366 620.879 52.296 620.571 52.296C620.272 52.296 620.006 52.366 619.773 52.506C619.539 52.6367 619.357 52.8233 619.227 53.066C619.096 53.3087 619.031 53.598 619.031 53.934V58.4H617.197Z" fill="white"/>
</g>
<defs>
<filter id="filter0_d_1_406" x="0" y="0" width="692" height="113.6" filterUnits="userSpaceOnUse" color-interpolation-filters="sRGB">
<feFlood flood-opacity="0" result="BackgroundImageFix"/>
<feColorMatrix in="SourceAlpha" type="matrix" values="0 0 0 0 0 0 0 0 0 0 0 0 0 0 0 0 0 0 127 0" result="hardAlpha"/>
<feMorphology radius="4" operator="erode" in="SourceAlpha" result="effect1_dropShadow_1_406"/>
<feOffset dy="4"/>
<feGaussianBlur stdDeviation="10"/>
<feComposite in2="hardAlpha" operator="out"/>
<feColorMatrix type="matrix" values="0 0 0 0 0.4 0 0 0 0 0.501961 0 0 0 0 0.6 0 0 0 0.12 0"/>
<feBlend mode="normal" in2="BackgroundImageFix" result="effect1_dropShadow_1_406"/>
<feBlend mode="normal" in="SourceGraphic" in2="effect1_dropShadow_1_406" result="shape"/>
</filter>
<clipPath id="clip0_1_406">
<rect width="16" height="16" fill="white" transform="translate(544.75 44.4)"/>
</clipPath>
</defs>
</svg>
